<svg xmlns="http://www.w3.org/2000/svg" xmlns:xlink="http://www.w3.org/1999/xlink" width="500" zoomAndPan="magnify" viewBox="0 0 375 374.999991" height="500" preserveAspectRatio="xMidYMid meet" version="1.0"><defs><g/><clipPath id="e40f80c432"><path d="M 165 81.066406 L 200 81.066406 L 200 118 L 165 118 Z M 165 81.066406 " clip-rule="nonzero"/></clipPath><clipPath id="1e1c9a868d"><path d="M 141.296875 103 L 226 103 L 226 210.816406 L 141.296875 210.816406 Z M 141.296875 103 " clip-rule="nonzero"/></clipPath><clipPath id="3f9a0d03e8"><path d="M 148 103 L 233.546875 103 L 233.546875 210.816406 L 148 210.816406 Z M 148 103 " clip-rule="nonzero"/></clipPath><clipPath id="895dff8698"><path d="M 174 81.066406 L 209 81.066406 L 209 118 L 174 118 Z M 174 81.066406 " clip-rule="nonzero"/></clipPath></defs><rect x="-37.5" width="450" fill="#ffffff" y="-37.499999" height="449.999989" fill-opacity="1"/><rect x="-37.5" width="450" fill="#fff3e0" y="-37.499999" height="449.999989" fill-opacity="1"/><g clip-path="url(#e40f80c432)"><path stroke-linecap="round" transform="matrix(0.0562254, 0, 0, -0.056364, 67.885363, 266.728751)" fill="none" stroke-linejoin="round" d="M 2306.173082 2673.577602 L 2306.173082 2995.702396 C 2306.173082 3141.587227 2187.996321 3259.889082 2042.099085 3259.889082 C 1896.20185 3259.889082 1778.025089 3141.587227 1778.025089 2995.702396 L 1778.025089 2673.577602 " stroke="#100f0f" stroke-width="68.362999" stroke-opacity="1" stroke-miterlimit="10"/></g><g clip-path="url(#1e1c9a868d)"><path fill="#f79326" d="M 225.890625 206.132812 C 225.890625 208.703125 223.785156 210.804688 221.21875 210.804688 L 145.980469 210.804688 C 143.417969 210.804688 141.316406 208.703125 141.316406 206.132812 L 150.0625 108.597656 C 150.0625 106.027344 152.167969 103.921875 154.730469 103.921875 L 212.46875 103.921875 C 215.039062 103.921875 217.136719 106.027344 217.136719 108.597656 L 225.890625 206.132812 " fill-opacity="1" fill-rule="nonzero"/></g><g clip-path="url(#3f9a0d03e8)"><path fill="#f9af23" d="M 233.523438 206.132812 C 233.523438 208.703125 231.421875 210.804688 228.859375 210.804688 L 153.617188 210.804688 C 151.054688 210.804688 148.949219 208.703125 148.949219 206.132812 L 157.707031 108.597656 C 157.707031 106.027344 159.800781 103.921875 162.371094 103.921875 L 220.109375 103.921875 C 222.671875 103.921875 224.777344 106.027344 224.777344 108.597656 L 233.523438 206.132812 " fill-opacity="1" fill-rule="nonzero"/></g><path fill="#f79326" d="M 180.578125 116.035156 C 180.578125 118.507812 178.582031 120.507812 176.121094 120.507812 C 173.65625 120.507812 171.65625 118.507812 171.65625 116.035156 C 171.65625 113.566406 173.65625 111.5625 176.121094 111.5625 C 178.582031 111.5625 180.578125 113.566406 180.578125 116.035156 " fill-opacity="1" fill-rule="nonzero"/><path fill="#f79326" d="M 210.820312 116.035156 C 210.820312 118.507812 208.820312 120.507812 206.363281 120.507812 C 203.894531 120.507812 201.898438 118.507812 201.898438 116.035156 C 201.898438 113.566406 203.894531 111.5625 206.363281 111.5625 C 208.820312 111.5625 210.820312 113.566406 210.820312 116.035156 " fill-opacity="1" fill-rule="nonzero"/><g clip-path="url(#895dff8698)"><path stroke-linecap="round" transform="matrix(0.0562254, 0, 0, -0.056364, 67.885363, 266.728751)" fill="none" stroke-linejoin="round" d="M 2457.975682 2673.577602 L 2457.975682 2995.702396 C 2457.975682 3141.587227 2339.798921 3259.889082 2193.901685 3259.889082 C 2048.00445 3259.889082 1929.827689 3141.587227 1929.827689 2995.702396 L 1929.827689 2673.577602 " stroke="#141515" stroke-width="68.362999" stroke-opacity="1" stroke-miterlimit="10"/></g><g fill="#000000" fill-opacity="1"><g transform="translate(64.660825, 272.130803)"><g><path d="M 4.515625 -27.890625 C 6.160156 -28.578125 7.742188 -28.921875 9.265625 -28.921875 C 10.535156 -28.921875 11.835938 -28.453125 13.171875 -27.515625 C 13.910156 -27.003906 14.738281 -26.015625 15.65625 -24.546875 C 16.257812 -23.535156 17.03125 -21.695312 17.96875 -19.03125 L 22.609375 -5.890625 C 23.671875 -2.953125 24.75 -0.617188 25.84375 1.109375 C 26.945312 2.847656 27.953125 4.15625 28.859375 5.03125 C 29.773438 5.90625 30.726562 6.519531 31.71875 6.875 C 32.707031 7.226562 33.523438 7.40625 34.171875 7.40625 C 34.816406 7.40625 35.394531 7.359375 35.90625 7.265625 L 35.9375 7.640625 C 34.726562 8.046875 33.539062 8.25 32.375 8.25 C 31.207031 8.25 30.039062 7.945312 28.875 7.34375 C 27.707031 6.75 26.617188 5.921875 25.609375 4.859375 C 23.429688 2.660156 21.582031 -0.691406 20.0625 -5.203125 L 18.578125 -9.53125 L 8.15625 -9.53125 L 5.546875 -2.78125 C 5.410156 -2.46875 5.34375 -2.160156 5.34375 -1.859375 C 5.34375 -1.554688 5.476562 -1.234375 5.75 -0.890625 C 6.019531 -0.546875 6.429688 -0.375 6.984375 -0.375 L 7.296875 -0.375 L 7.296875 0 L -0.34375 0 L -0.34375 -0.375 L 0 -0.375 C 0.601562 -0.375 1.195312 -0.554688 1.78125 -0.921875 C 2.363281 -1.296875 2.84375 -1.847656 3.21875 -2.578125 L 12.640625 -25.15625 C 11.273438 -27.101562 9.582031 -28.078125 7.5625 -28.078125 C 6.644531 -28.078125 5.664062 -27.890625 4.625 -27.515625 Z M 8.578125 -10.671875 L 18.1875 -10.671875 L 15.1875 -19.53125 C 14.601562 -21.226562 14.070312 -22.554688 13.59375 -23.515625 Z M 8.578125 -10.671875 "/></g></g></g><g fill="#000000" fill-opacity="1"><g transform="translate(91.141301, 272.130803)"><g><path d="M 34.203125 -0.375 L 34.8125 -0.375 L 34.8125 0 L 26.5625 0 L 26.5625 -0.34375 L 27.125 -0.34375 C 27.5625 -0.34375 27.929688 -0.503906 28.234375 -0.828125 C 28.535156 -1.160156 28.660156 -1.539062 28.609375 -1.96875 L 26.90625 -21.09375 L 18.921875 -3.34375 C 18.210938 -1.800781 17.78125 -0.507812 17.625 0.53125 L 17.25 0.53125 L 7.53125 -20.5625 L 5.890625 -1.96875 C 5.835938 -1.570312 5.960938 -1.203125 6.265625 -0.859375 C 6.566406 -0.515625 6.9375 -0.34375 7.375 -0.34375 L 7.9375 -0.34375 L 7.9375 0 L 0.5625 0 L 0.5625 -0.375 L 1.171875 -0.375 C 1.878906 -0.375 2.492188 -0.585938 3.015625 -1.015625 C 3.535156 -1.453125 3.847656 -2.039062 3.953125 -2.78125 L 6.796875 -27.125 L 7.1875 -27.125 L 17.78125 -4.21875 L 28.15625 -27.125 L 28.5 -27.125 L 31.421875 -2.78125 C 31.523438 -2.039062 31.84375 -1.453125 32.375 -1.015625 C 32.90625 -0.585938 33.515625 -0.375 34.203125 -0.375 Z M 34.203125 -0.375 "/></g></g></g><g fill="#000000" fill-opacity="1"><g transform="translate(125.942067, 272.130803)"><g><path d="M 27.203125 -0.375 L 27.5 -0.375 L 27.5 0 L 18.953125 0 L 18.953125 -0.375 L 19.296875 -0.375 C 19.828125 -0.375 20.222656 -0.546875 20.484375 -0.890625 C 20.753906 -1.234375 20.890625 -1.554688 20.890625 -1.859375 C 20.890625 -2.160156 20.835938 -2.46875 20.734375 -2.78125 L 18.3125 -9.234375 L 8.046875 -9.234375 L 5.5 -2.734375 C 5.394531 -2.429688 5.34375 -2.132812 5.34375 -1.84375 C 5.34375 -1.550781 5.476562 -1.234375 5.75 -0.890625 C 6.019531 -0.546875 6.421875 -0.375 6.953125 -0.375 L 7.296875 -0.375 L 7.296875 0 L -0.34375 0 L -0.34375 -0.375 L 0 -0.375 C 0.625 -0.375 1.238281 -0.578125 1.84375 -0.984375 C 2.457031 -1.390625 2.957031 -1.988281 3.34375 -2.78125 L 11.921875 -23.21875 C 12.859375 -25.269531 13.328125 -26.570312 13.328125 -27.125 L 13.671875 -27.125 L 23.859375 -2.78125 C 24.210938 -1.988281 24.691406 -1.390625 25.296875 -0.984375 C 25.910156 -0.578125 26.546875 -0.375 27.203125 -0.375 Z M 8.5 -10.375 L 17.859375 -10.375 L 13.296875 -22.578125 Z M 8.5 -10.375 "/></g></g></g><g fill="#000000" fill-opacity="1"><g transform="translate(152.422543, 272.130803)"><g><path d="M 3.1875 -23.21875 L 3.1875 -22.53125 L 2.8125 -22.53125 L 2.8125 -27.328125 C 3.1875 -27.171875 3.851562 -27.015625 4.8125 -26.859375 C 5.78125 -26.710938 6.445312 -26.640625 6.8125 -26.640625 C 7.1875 -26.640625 7.382812 -26.640625 7.40625 -26.640625 L 18.015625 -26.640625 C 19.253906 -26.640625 20.203125 -26.707031 20.859375 -26.84375 C 21.515625 -26.988281 21.910156 -27.082031 22.046875 -27.125 L 22.046875 -26.796875 L 5.78125 -1.140625 L 17.859375 -1.140625 C 19.203125 -1.140625 20.3125 -1.566406 21.1875 -2.421875 C 22.0625 -3.285156 22.6875 -4.429688 23.0625 -5.859375 L 23.453125 -5.859375 L 22.1875 0 L 2.28125 0 L 2.28125 -0.34375 L 18.234375 -25.5 L 5.4375 -25.5 C 4.800781 -25.46875 4.265625 -25.238281 3.828125 -24.8125 C 3.398438 -24.382812 3.1875 -23.851562 3.1875 -23.21875 Z M 3.1875 -23.21875 "/></g></g></g><g fill="#000000" fill-opacity="1"><g transform="translate(176.585488, 272.130803)"><g><path d="M 5.578125 -23.3125 C 8.296875 -25.851562 11.8125 -27.125 16.125 -27.125 C 20.445312 -27.125 23.960938 -25.851562 26.671875 -23.3125 C 29.378906 -20.769531 30.734375 -17.429688 30.734375 -13.296875 C 30.734375 -9.171875 29.378906 -5.832031 26.671875 -3.28125 C 23.960938 -0.738281 20.445312 0.53125 16.125 0.53125 C 11.8125 0.53125 8.296875 -0.738281 5.578125 -3.28125 C 2.867188 -5.832031 1.515625 -9.171875 1.515625 -13.296875 C 1.515625 -17.429688 2.867188 -20.769531 5.578125 -23.3125 Z M 7.65625 -4.09375 C 9.800781 -1.769531 12.617188 -0.609375 16.109375 -0.609375 C 19.609375 -0.609375 22.425781 -1.769531 24.5625 -4.09375 C 26.707031 -6.425781 27.78125 -9.492188 27.78125 -13.296875 C 27.78125 -17.097656 26.707031 -20.160156 24.5625 -22.484375 C 22.425781 -24.816406 19.609375 -25.984375 16.109375 -25.984375 C 12.617188 -25.984375 9.800781 -24.816406 7.65625 -22.484375 C 5.519531 -20.160156 4.453125 -17.097656 4.453125 -13.296875 C 4.453125 -9.492188 5.519531 -6.425781 7.65625 -4.09375 Z M 7.65625 -4.09375 "/></g></g></g><g fill="#000000" fill-opacity="1"><g transform="translate(208.232897, 272.130803)"><g><path d="M 29.5625 -26.21875 C 28.925781 -26.21875 28.378906 -25.992188 27.921875 -25.546875 C 27.472656 -25.109375 27.234375 -24.570312 27.203125 -23.9375 L 27.203125 -4.328125 C 27.203125 -2.859375 27.289062 -1.46875 27.46875 -0.15625 L 27.546875 0.53125 L 27.203125 0.53125 L 6.5 -21.578125 L 6.5 -2.65625 C 6.5 -2.019531 6.722656 -1.476562 7.171875 -1.03125 C 7.628906 -0.59375 8.175781 -0.375 8.8125 -0.375 L 9.53125 -0.375 L 9.53125 0 L 1.703125 0 L 1.703125 -0.375 L 2.4375 -0.375 C 3.0625 -0.375 3.601562 -0.59375 4.0625 -1.03125 C 4.519531 -1.476562 4.75 -2.035156 4.75 -2.703125 L 4.75 -22.421875 C 4.75 -23.960938 4.660156 -25.34375 4.484375 -26.5625 L 4.40625 -27.171875 L 4.78125 -27.171875 L 25.5 -5.046875 L 25.5 -23.90625 C 25.46875 -24.5625 25.222656 -25.109375 24.765625 -25.546875 C 24.316406 -25.992188 23.773438 -26.21875 23.140625 -26.21875 L 22.421875 -26.21875 L 22.421875 -26.59375 L 30.25 -26.59375 L 30.25 -26.21875 Z M 29.5625 -26.21875 "/></g></g></g><g fill="#000000" fill-opacity="1"><g transform="translate(239.614356, 272.130803)"><g><path d="M 2.78125 -0.375 C 3.4375 -0.375 4 -0.609375 4.46875 -1.078125 C 4.9375 -1.546875 5.179688 -2.113281 5.203125 -2.78125 L 5.203125 -23.859375 C 5.179688 -24.523438 4.9375 -25.082031 4.46875 -25.53125 C 4 -25.988281 3.4375 -26.21875 2.78125 -26.21875 L 2.28125 -26.21875 L 2.28125 -26.59375 L 10.609375 -26.59375 L 10.609375 -26.21875 L 10.109375 -26.21875 C 9.453125 -26.21875 8.890625 -25.988281 8.421875 -25.53125 C 7.953125 -25.082031 7.703125 -24.523438 7.671875 -23.859375 L 7.671875 -2.78125 C 7.671875 -2.113281 7.910156 -1.546875 8.390625 -1.078125 C 8.878906 -0.609375 9.453125 -0.375 10.109375 -0.375 L 10.609375 -0.375 L 10.609375 0 L 2.28125 0 L 2.28125 -0.375 Z M 2.78125 -0.375 "/></g></g></g><g fill="#000000" fill-opacity="1"><g transform="translate(251.885741, 272.130803)"><g><path d="M 27.203125 -0.375 L 27.5 -0.375 L 27.5 0 L 18.953125 0 L 18.953125 -0.375 L 19.296875 -0.375 C 19.828125 -0.375 20.222656 -0.546875 20.484375 -0.890625 C 20.753906 -1.234375 20.890625 -1.554688 20.890625 -1.859375 C 20.890625 -2.160156 20.835938 -2.46875 20.734375 -2.78125 L 18.3125 -9.234375 L 8.046875 -9.234375 L 5.5 -2.734375 C 5.394531 -2.429688 5.34375 -2.132812 5.34375 -1.84375 C 5.34375 -1.550781 5.476562 -1.234375 5.75 -0.890625 C 6.019531 -0.546875 6.421875 -0.375 6.953125 -0.375 L 7.296875 -0.375 L 7.296875 0 L -0.34375 0 L -0.34375 -0.375 L 0 -0.375 C 0.625 -0.375 1.238281 -0.578125 1.84375 -0.984375 C 2.457031 -1.390625 2.957031 -1.988281 3.34375 -2.78125 L 11.921875 -23.21875 C 12.859375 -25.269531 13.328125 -26.570312 13.328125 -27.125 L 13.671875 -27.125 L 23.859375 -2.78125 C 24.210938 -1.988281 24.691406 -1.390625 25.296875 -0.984375 C 25.910156 -0.578125 26.546875 -0.375 27.203125 -0.375 Z M 8.5 -10.375 L 17.859375 -10.375 L 13.296875 -22.578125 Z M 8.5 -10.375 "/></g></g></g><g fill="#000000" fill-opacity="1"><g transform="translate(278.366223, 272.130803)"><g><path d="M 29.5625 -26.21875 C 28.925781 -26.21875 28.378906 -25.992188 27.921875 -25.546875 C 27.472656 -25.109375 27.234375 -24.570312 27.203125 -23.9375 L 27.203125 -4.328125 C 27.203125 -2.859375 27.289062 -1.46875 27.46875 -0.15625 L 27.546875 0.53125 L 27.203125 0.53125 L 6.5 -21.578125 L 6.5 -2.65625 C 6.5 -2.019531 6.722656 -1.476562 7.171875 -1.03125 C 7.628906 -0.59375 8.175781 -0.375 8.8125 -0.375 L 9.53125 -0.375 L 9.53125 0 L 1.703125 0 L 1.703125 -0.375 L 2.4375 -0.375 C 3.0625 -0.375 3.601562 -0.59375 4.0625 -1.03125 C 4.519531 -1.476562 4.75 -2.035156 4.75 -2.703125 L 4.75 -22.421875 C 4.75 -23.960938 4.660156 -25.34375 4.484375 -26.5625 L 4.40625 -27.171875 L 4.78125 -27.171875 L 25.5 -5.046875 L 25.5 -23.90625 C 25.46875 -24.5625 25.222656 -25.109375 24.765625 -25.546875 C 24.316406 -25.992188 23.773438 -26.21875 23.140625 -26.21875 L 22.421875 -26.21875 L 22.421875 -26.59375 L 30.25 -26.59375 L 30.25 -26.21875 Z M 29.5625 -26.21875 "/></g></g></g></svg>