<svg xmlns="http://www.w3.org/2000/svg" xmlns:xlink="http://www.w3.org/1999/xlink" width="500" zoomAndPan="magnify" viewBox="0 0 375 374.999991" height="500" preserveAspectRatio="xMidYMid meet" version="1.0"><defs><g/><clipPath id="f5aef0ffa9"><path d="M 127.605469 162 L 158 162 L 158 178 L 127.605469 178 Z M 127.605469 162 " clip-rule="nonzero"/></clipPath><clipPath id="b7bc98e598"><path d="M 158 102 L 247.605469 102 L 247.605469 206.96875 L 158 206.96875 Z M 158 102 " clip-rule="nonzero"/></clipPath><clipPath id="09c14435ea"><path d="M 212 89.21875 L 237 89.21875 L 237 114 L 212 114 Z M 212 89.21875 " clip-rule="nonzero"/></clipPath></defs><rect x="-37.5" width="450" fill="#ffffff" y="-37.499999" height="449.999989" fill-opacity="1"/><rect x="-37.5" width="450" fill="#ffffff" y="-37.499999" height="449.999989" fill-opacity="1"/><rect x="-37.5" width="450" fill="#ffffff" y="-37.499999" height="449.999989" fill-opacity="1"/><g clip-path="url(#f5aef0ffa9)"><path fill="#399b53" d="M 134.128906 162.253906 L 127.652344 172.777344 C 139.726562 170.875 149.550781 172.503906 157.101562 177.675781 C 151.613281 170.40625 143.953125 165.261719 134.121094 162.253906 Z M 134.128906 162.253906 " fill-opacity="1" fill-rule="evenodd"/></g><path fill="#000000" d="M 128.796875 156.742188 C 142.835938 158.625 153.738281 165.503906 161.488281 177.375 C 159.550781 165.386719 153.464844 155.84375 143.210938 148.71875 Z M 128.796875 156.742188 " fill-opacity="1" fill-rule="evenodd"/><path fill="#399b53" d="M 135.902344 137.042969 C 155.046875 149.363281 165.421875 166.316406 167.023438 187.886719 C 170.222656 170.875 165.449219 155.628906 152.71875 142.148438 C 163.386719 139.09375 171.605469 131.871094 177.367188 120.480469 C 196.378906 153.507812 190.320312 179.902344 159.195312 199.667969 C 198.617188 186.042969 204.539062 144.5 176.957031 107.558594 C 170.8125 128.082031 157.132812 137.914062 135.910156 137.042969 Z M 135.902344 137.042969 " fill-opacity="1" fill-rule="evenodd"/><g clip-path="url(#b7bc98e598)"><path fill="#000000" d="M 183.121094 102.980469 C 215.957031 144.433594 205.515625 191.390625 158.050781 206.96875 C 207.816406 204.097656 237.648438 172.386719 247.570312 111.832031 C 234.480469 129.539062 212.992188 126.589844 183.121094 102.980469 Z M 183.121094 102.980469 " fill-opacity="1" fill-rule="evenodd"/></g><g clip-path="url(#09c14435ea)"><path fill="#000000" d="M 224.164062 113.179688 C 230.78125 113.179688 236.179688 107.800781 236.179688 101.195312 C 236.179688 94.59375 230.789062 89.207031 224.164062 89.207031 C 217.550781 89.207031 212.152344 94.585938 212.152344 101.195312 C 212.152344 107.792969 217.550781 113.179688 224.164062 113.179688 Z M 224.164062 113.179688 " fill-opacity="1" fill-rule="evenodd"/></g><path fill="#399b53" d="M 177.738281 151.957031 C 178.128906 152.640625 177.925781 153.3125 177.101562 153.96875 L 175.566406 151.304688 C 176.191406 151.195312 176.671875 151.195312 176.984375 151.292969 C 177.296875 151.402344 177.554688 151.617188 177.75 151.949219 Z M 171.859375 149.039062 C 171.222656 149.148438 170.761719 149.148438 170.460938 149.039062 C 170.15625 148.921875 169.921875 148.726562 169.753906 148.433594 C 169.578125 148.132812 169.53125 147.808594 169.617188 147.476562 C 169.707031 147.144531 169.949219 146.8125 170.378906 146.480469 L 171.867188 149.050781 Z M 180.4375 150.210938 C 179.824219 149.148438 179 148.484375 177.972656 148.21875 C 176.945312 147.957031 175.597656 148.042969 173.921875 148.484375 L 172.257812 145.613281 C 172.71875 145.476562 173.207031 145.398438 173.71875 145.371094 C 174.226562 145.339844 174.746094 145.339844 175.273438 145.378906 L 175.261719 142.421875 C 174.53125 142.351562 173.804688 142.371094 173.089844 142.46875 C 172.375 142.566406 171.652344 142.761719 170.898438 143.054688 L 170.242188 141.914062 L 168.257812 143.054688 L 168.894531 144.160156 C 168.335938 144.570312 167.867188 145.007812 167.484375 145.496094 C 167.101562 145.972656 166.828125 146.480469 166.671875 147.007812 C 166.507812 147.535156 166.457031 148.0625 166.515625 148.609375 C 166.574219 149.148438 166.761719 149.683594 167.0625 150.21875 C 167.386719 150.777344 167.757812 151.214844 168.167969 151.546875 C 168.589844 151.871094 169.058594 152.09375 169.578125 152.222656 C 170.097656 152.347656 170.683594 152.378906 171.328125 152.308594 C 171.976562 152.25 172.699219 152.113281 173.503906 151.910156 L 175.253906 154.933594 C 174.617188 155.148438 173.980469 155.265625 173.335938 155.285156 C 172.699219 155.304688 172.003906 155.277344 171.25 155.179688 L 171.015625 158.203125 C 171.925781 158.320312 172.867188 158.3125 173.804688 158.175781 C 174.753906 158.039062 175.675781 157.792969 176.554688 157.414062 L 177.671875 159.335938 L 179.65625 158.195312 L 178.570312 156.3125 C 179.148438 155.902344 179.617188 155.441406 180 154.953125 C 180.378906 154.464844 180.644531 153.957031 180.8125 153.429688 C 180.976562 152.90625 181.027344 152.378906 180.976562 151.832031 C 180.929688 151.285156 180.742188 150.746094 180.4375 150.21875 Z M 180.4375 150.210938 " fill-opacity="1" fill-rule="evenodd"/><g fill="#000000" fill-opacity="1"><g transform="translate(107.856567, 254.965696)"><g><path d="M 2.4375 -33.40625 L 12.796875 -33.40625 C 15.929688 -33.40625 18.425781 -32.738281 20.28125 -31.40625 C 22.144531 -30.070312 23.078125 -27.90625 23.078125 -24.90625 C 23.078125 -21.5625 21.6875 -19.171875 18.90625 -17.734375 C 23.664062 -16.898438 26.046875 -14.09375 26.046875 -9.3125 C 26.046875 -6.507812 25.070312 -4.253906 23.125 -2.546875 C 21.175781 -0.847656 18.503906 0 15.109375 0 L 2.4375 0 Z M 10.046875 -20.328125 L 10.65625 -20.328125 C 12.351562 -20.328125 13.617188 -20.625 14.453125 -21.21875 C 15.296875 -21.8125 15.71875 -22.785156 15.71875 -24.140625 C 15.71875 -26.410156 14.03125 -27.546875 10.65625 -27.546875 L 10.046875 -27.546875 Z M 10.046875 -5.875 L 12.4375 -5.875 C 16.15625 -5.875 18.015625 -7.113281 18.015625 -9.59375 C 18.015625 -11.082031 17.550781 -12.148438 16.625 -12.796875 C 15.695312 -13.441406 14.300781 -13.765625 12.4375 -13.765625 L 10.046875 -13.765625 Z M 10.046875 -5.875 "/></g></g></g><g fill="#000000" fill-opacity="1"><g transform="translate(134.01985, 254.965696)"><g><path d="M 3.84375 -2.5625 C 1.90625 -4.6875 0.9375 -7.285156 0.9375 -10.359375 C 0.9375 -13.441406 1.90625 -16.050781 3.84375 -18.1875 C 5.789062 -20.320312 8.265625 -21.390625 11.265625 -21.390625 C 14.015625 -21.390625 16.28125 -20.523438 18.0625 -18.796875 L 18.0625 -20.78125 L 25.234375 -20.78125 L 25.234375 0 L 18.140625 0 L 18.140625 -2.34375 L 18.0625 -2.34375 C 16.28125 -0.375 14.015625 0.609375 11.265625 0.609375 C 8.265625 0.609375 5.789062 -0.445312 3.84375 -2.5625 Z M 9.9375 -13.890625 C 9.007812 -12.972656 8.546875 -11.796875 8.546875 -10.359375 C 8.546875 -8.929688 8.988281 -7.765625 9.875 -6.859375 C 10.769531 -5.960938 11.945312 -5.515625 13.40625 -5.515625 C 14.8125 -5.515625 15.960938 -5.972656 16.859375 -6.890625 C 17.765625 -7.804688 18.21875 -8.96875 18.21875 -10.375 C 18.21875 -11.800781 17.753906 -12.972656 16.828125 -13.890625 C 15.898438 -14.804688 14.757812 -15.265625 13.40625 -15.265625 C 12.03125 -15.265625 10.875 -14.804688 9.9375 -13.890625 Z M 9.9375 -13.890625 "/></g></g></g><g fill="#000000" fill-opacity="1"><g transform="translate(160.871646, 254.965696)"><g><path d="M 2.4375 0 L 2.4375 -20.78125 L 9.59375 -20.78125 L 9.59375 -18.59375 L 9.671875 -18.59375 C 11.535156 -20.457031 13.523438 -21.390625 15.640625 -21.390625 C 16.660156 -21.390625 17.675781 -21.253906 18.6875 -20.984375 C 19.695312 -20.710938 20.664062 -20.289062 21.59375 -19.71875 C 22.53125 -19.15625 23.289062 -18.351562 23.875 -17.3125 C 24.457031 -16.269531 24.75 -15.0625 24.75 -13.6875 L 24.75 0 L 17.578125 0 L 17.578125 -11.75 C 17.578125 -12.820312 17.234375 -13.765625 16.546875 -14.578125 C 15.859375 -15.390625 14.957031 -15.796875 13.84375 -15.796875 C 12.769531 -15.796875 11.789062 -15.375 10.90625 -14.53125 C 10.03125 -13.695312 9.59375 -12.769531 9.59375 -11.75 L 9.59375 0 Z M 2.4375 0 "/></g></g></g><g fill="#000000" fill-opacity="1"><g transform="translate(186.832423, 254.965696)"><g><path d="M 26.15625 -20.78125 L 16.28125 -10.859375 L 27.140625 0 L 17.90625 0 L 9.59375 -8.296875 L 9.59375 0 L 2.4375 0 L 2.4375 -34.828125 L 9.59375 -34.828125 L 9.59375 -13.53125 L 16.84375 -20.78125 Z M 26.15625 -20.78125 "/></g></g></g><g fill="#000000" fill-opacity="1"><g transform="translate(212.185702, 254.965696)"><g><path d="M 11.46875 -21.390625 C 12.65625 -21.390625 13.828125 -21.253906 14.984375 -20.984375 C 16.140625 -20.710938 17.003906 -20.441406 17.578125 -20.171875 L 18.421875 -19.765625 L 16.078125 -15.0625 C 14.460938 -15.925781 12.925781 -16.359375 11.46875 -16.359375 C 10.65625 -16.359375 10.078125 -16.269531 9.734375 -16.09375 C 9.398438 -15.914062 9.234375 -15.585938 9.234375 -15.109375 C 9.234375 -14.992188 9.242188 -14.882812 9.265625 -14.78125 C 9.296875 -14.675781 9.351562 -14.578125 9.4375 -14.484375 C 9.519531 -14.390625 9.59375 -14.304688 9.65625 -14.234375 C 9.726562 -14.171875 9.84375 -14.097656 10 -14.015625 C 10.164062 -13.929688 10.296875 -13.867188 10.390625 -13.828125 C 10.484375 -13.785156 10.632812 -13.722656 10.84375 -13.640625 C 11.0625 -13.566406 11.222656 -13.507812 11.328125 -13.46875 C 11.441406 -13.425781 11.625 -13.363281 11.875 -13.28125 C 12.132812 -13.195312 12.332031 -13.144531 12.46875 -13.125 C 13.3125 -12.875 14.039062 -12.597656 14.65625 -12.296875 C 15.28125 -12.003906 15.9375 -11.601562 16.625 -11.09375 C 17.3125 -10.582031 17.84375 -9.9375 18.21875 -9.15625 C 18.601562 -8.375 18.796875 -7.484375 18.796875 -6.484375 C 18.796875 -1.753906 15.515625 0.609375 8.953125 0.609375 C 7.460938 0.609375 6.050781 0.378906 4.71875 -0.078125 C 3.382812 -0.535156 2.421875 -0.992188 1.828125 -1.453125 L 0.9375 -2.1875 L 3.84375 -7.09375 C 4.0625 -6.894531 4.34375 -6.664062 4.6875 -6.40625 C 5.039062 -6.15625 5.675781 -5.804688 6.59375 -5.359375 C 7.519531 -4.921875 8.316406 -4.703125 8.984375 -4.703125 C 10.472656 -4.703125 11.21875 -5.203125 11.21875 -6.203125 C 11.21875 -6.660156 11.023438 -7.015625 10.640625 -7.265625 C 10.265625 -7.523438 9.625 -7.816406 8.71875 -8.140625 C 7.820312 -8.460938 7.113281 -8.757812 6.59375 -9.03125 C 5.300781 -9.707031 4.273438 -10.46875 3.515625 -11.3125 C 2.765625 -12.164062 2.390625 -13.296875 2.390625 -14.703125 C 2.390625 -16.804688 3.207031 -18.445312 4.84375 -19.625 C 6.476562 -20.800781 8.6875 -21.390625 11.46875 -21.390625 Z M 11.46875 -21.390625 "/></g></g></g><g fill="#000000" fill-opacity="1"><g transform="translate(231.301895, 254.965696)"><g><path d="M 3.109375 -32.359375 C 3.953125 -33.191406 4.953125 -33.609375 6.109375 -33.609375 C 7.273438 -33.609375 8.273438 -33.191406 9.109375 -32.359375 C 9.953125 -31.523438 10.375 -30.523438 10.375 -29.359375 C 10.375 -28.203125 9.953125 -27.203125 9.109375 -26.359375 C 8.273438 -25.523438 7.273438 -25.109375 6.109375 -25.109375 C 4.953125 -25.109375 3.953125 -25.523438 3.109375 -26.359375 C 2.273438 -27.203125 1.859375 -28.203125 1.859375 -29.359375 C 1.859375 -30.523438 2.273438 -31.523438 3.109375 -32.359375 Z M 2.4375 -20.78125 L 2.4375 0 L 9.59375 0 L 9.59375 -20.78125 Z M 2.4375 -20.78125 "/></g></g></g><g fill="#000000" fill-opacity="1"><g transform="translate(242.722992, 254.965696)"><g><path d="M 23.453125 -9.390625 L 8.390625 -9.390625 C 8.390625 -7.929688 8.859375 -6.851562 9.796875 -6.15625 C 10.742188 -5.457031 11.769531 -5.109375 12.875 -5.109375 C 14.039062 -5.109375 14.957031 -5.257812 15.625 -5.5625 C 16.300781 -5.875 17.070312 -6.488281 17.9375 -7.40625 L 23.125 -4.8125 C 20.96875 -1.195312 17.378906 0.609375 12.359375 0.609375 C 9.222656 0.609375 6.535156 -0.460938 4.296875 -2.609375 C 2.054688 -4.753906 0.9375 -7.335938 0.9375 -10.359375 C 0.9375 -13.390625 2.054688 -15.984375 4.296875 -18.140625 C 6.535156 -20.304688 9.222656 -21.390625 12.359375 -21.390625 C 15.648438 -21.390625 18.328125 -20.4375 20.390625 -18.53125 C 22.453125 -16.625 23.484375 -13.90625 23.484375 -10.375 C 23.484375 -9.882812 23.472656 -9.554688 23.453125 -9.390625 Z M 8.59375 -13.359375 L 16.484375 -13.359375 C 16.316406 -14.441406 15.890625 -15.269531 15.203125 -15.84375 C 14.515625 -16.425781 13.632812 -16.71875 12.5625 -16.71875 C 11.363281 -16.71875 10.414062 -16.40625 9.71875 -15.78125 C 9.019531 -15.164062 8.644531 -14.359375 8.59375 -13.359375 Z M 8.59375 -13.359375 "/></g></g></g><g fill="#000000" fill-opacity="1"><g transform="translate(153.321139, 285.295176)"><g><path d="M 2.8125 -9.359375 L 2.8125 -1.875 L 6.03125 -1.875 L 6.03125 0 L 0.6875 0 L 0.6875 -9.359375 Z M 2.8125 -9.359375 "/></g></g></g><g fill="#000000" fill-opacity="1"><g transform="translate(166.257812, 285.295176)"><g><path d="M 0.265625 -4.6875 C 0.265625 -6.039062 0.722656 -7.1875 1.640625 -8.125 C 2.566406 -9.0625 3.679688 -9.53125 4.984375 -9.53125 C 6.285156 -9.53125 7.394531 -9.0625 8.3125 -8.125 C 9.226562 -7.195312 9.6875 -6.050781 9.6875 -4.6875 C 9.6875 -3.3125 9.234375 -2.15625 8.328125 -1.21875 C 7.429688 -0.289062 6.316406 0.171875 4.984375 0.171875 C 3.609375 0.171875 2.476562 -0.289062 1.59375 -1.21875 C 0.707031 -2.144531 0.265625 -3.300781 0.265625 -4.6875 Z M 2.5625 -4.6875 C 2.5625 -4.195312 2.632812 -3.75 2.78125 -3.34375 C 2.9375 -2.9375 3.203125 -2.59375 3.578125 -2.3125 C 3.960938 -2.03125 4.429688 -1.890625 4.984375 -1.890625 C 5.773438 -1.890625 6.375 -2.160156 6.78125 -2.703125 C 7.1875 -3.253906 7.390625 -3.914062 7.390625 -4.6875 C 7.390625 -5.445312 7.179688 -6.097656 6.765625 -6.640625 C 6.347656 -7.191406 5.753906 -7.46875 4.984375 -7.46875 C 4.210938 -7.46875 3.613281 -7.191406 3.1875 -6.640625 C 2.769531 -6.097656 2.5625 -5.445312 2.5625 -4.6875 Z M 2.5625 -4.6875 "/></g></g></g><g fill="#000000" fill-opacity="1"><g transform="translate(182.733752, 285.295176)"><g><path d="M 5.4375 -9.359375 L 9.21875 0 L 6.921875 0 L 6.234375 -1.875 L 2.671875 -1.875 L 1.96875 0 L -0.3125 0 L 3.453125 -9.359375 Z M 5.5 -3.75 L 4.453125 -6.46875 L 4.4375 -6.46875 L 3.390625 -3.75 Z M 5.5 -3.75 "/></g></g></g><g fill="#000000" fill-opacity="1"><g transform="translate(198.154719, 285.295176)"><g><path d="M 2.8125 -5.8125 L 2.8125 0 L 0.6875 0 L 0.6875 -9.359375 L 2.8125 -9.359375 L 6.53125 -3.546875 L 6.5625 -3.546875 L 6.5625 -9.359375 L 8.6875 -9.359375 L 8.6875 0 L 6.5625 0 L 2.828125 -5.8125 Z M 2.8125 -5.8125 "/></g></g></g><g fill="#000000" fill-opacity="1"><g transform="translate(214.052127, 285.295176)"><g><path d="M 4.125 -9.53125 C 4.632812 -9.53125 5.128906 -9.457031 5.609375 -9.3125 C 6.097656 -9.164062 6.457031 -9.019531 6.6875 -8.875 L 7.03125 -8.640625 L 6.171875 -6.9375 C 6.097656 -6.988281 6 -7.046875 5.875 -7.109375 C 5.757812 -7.179688 5.535156 -7.28125 5.203125 -7.40625 C 4.867188 -7.53125 4.5625 -7.59375 4.28125 -7.59375 C 3.925781 -7.59375 3.648438 -7.515625 3.453125 -7.359375 C 3.265625 -7.210938 3.171875 -7.007812 3.171875 -6.75 C 3.171875 -6.625 3.210938 -6.503906 3.296875 -6.390625 C 3.390625 -6.285156 3.546875 -6.171875 3.765625 -6.046875 C 3.984375 -5.921875 4.175781 -5.816406 4.34375 -5.734375 C 4.507812 -5.660156 4.765625 -5.550781 5.109375 -5.40625 C 5.722656 -5.144531 6.242188 -4.789062 6.671875 -4.34375 C 7.097656 -3.90625 7.3125 -3.40625 7.3125 -2.84375 C 7.3125 -2.3125 7.210938 -1.84375 7.015625 -1.4375 C 6.828125 -1.039062 6.5625 -0.726562 6.21875 -0.5 C 5.882812 -0.269531 5.507812 -0.101562 5.09375 0 C 4.6875 0.113281 4.25 0.171875 3.78125 0.171875 C 3.375 0.171875 2.972656 0.128906 2.578125 0.046875 C 2.179688 -0.0351562 1.847656 -0.140625 1.578125 -0.265625 C 1.316406 -0.390625 1.082031 -0.507812 0.875 -0.625 C 0.664062 -0.75 0.507812 -0.851562 0.40625 -0.9375 L 0.265625 -1.0625 L 1.328125 -2.859375 C 1.421875 -2.785156 1.546875 -2.6875 1.703125 -2.5625 C 1.859375 -2.445312 2.140625 -2.289062 2.546875 -2.09375 C 2.953125 -1.894531 3.3125 -1.796875 3.625 -1.796875 C 4.519531 -1.796875 4.96875 -2.101562 4.96875 -2.71875 C 4.96875 -2.851562 4.9375 -2.972656 4.875 -3.078125 C 4.8125 -3.191406 4.695312 -3.300781 4.53125 -3.40625 C 4.363281 -3.519531 4.21875 -3.609375 4.09375 -3.671875 C 3.96875 -3.734375 3.765625 -3.828125 3.484375 -3.953125 C 3.203125 -4.085938 2.992188 -4.191406 2.859375 -4.265625 C 2.296875 -4.546875 1.859375 -4.894531 1.546875 -5.3125 C 1.234375 -5.726562 1.078125 -6.179688 1.078125 -6.671875 C 1.078125 -7.503906 1.382812 -8.1875 2 -8.71875 C 2.625 -9.257812 3.332031 -9.53125 4.125 -9.53125 Z M 4.125 -9.53125 "/></g></g></g></svg>