<svg xmlns="http://www.w3.org/2000/svg" xmlns:xlink="http://www.w3.org/1999/xlink" width="500" zoomAndPan="magnify" viewBox="0 0 375 374.999991" height="500" preserveAspectRatio="xMidYMid meet" version="1.0"><defs><g/><clipPath id="a41d75dd29"><path d="M 112.332031 81.601562 L 262.664062 81.601562 L 262.664062 222.285156 L 112.332031 222.285156 Z M 112.332031 81.601562 " clip-rule="nonzero"/></clipPath><clipPath id="65c60e2e41"><path d="M 112.664062 81.613281 L 262.660156 81.613281 L 262.660156 222.285156 L 112.664062 222.285156 Z M 112.664062 81.613281 " clip-rule="nonzero"/></clipPath><clipPath id="062ab0523d"><path d="M 213 167.078125 L 237.574219 167.078125 L 237.574219 191.652344 L 213 191.652344 Z M 213 167.078125 " clip-rule="nonzero"/></clipPath><clipPath id="eab7376979"><path d="M 225.289062 167.078125 C 218.503906 167.078125 213 172.578125 213 179.367188 C 213 186.152344 218.503906 191.652344 225.289062 191.652344 C 232.074219 191.652344 237.574219 186.152344 237.574219 179.367188 C 237.574219 172.578125 232.074219 167.078125 225.289062 167.078125 Z M 225.289062 167.078125 " clip-rule="nonzero"/></clipPath></defs><rect x="-37.5" width="450" fill="#ffffff" y="-37.499999" height="449.999989" fill-opacity="1"/><rect x="-37.5" width="450" fill="#1c2120" y="-37.499999" height="449.999989" fill-opacity="1"/><g clip-path="url(#a41d75dd29)"><path fill="#4d8eff" d="M 262.664062 222.285156 L 112.332031 222.285156 L 112.332031 81.601562 L 262.664062 81.601562 Z M 262.664062 222.285156 " fill-opacity="1" fill-rule="nonzero"/></g><g clip-path="url(#65c60e2e41)"><path stroke-linecap="butt" transform="matrix(-0.75, 0, 0, -0.75, 262.659129, 222.284225)" fill="none" stroke-linejoin="miter" d="M -0.00136986 -0.0012422 L 200.430935 -0.0012422 L 200.430935 187.56127 L -0.00136986 187.56127 Z M -0.00136986 -0.0012422 " stroke="#ffffff" stroke-width="16" stroke-opacity="1" stroke-miterlimit="4"/></g><g fill="#ffffff" fill-opacity="1"><g transform="translate(122.320184, 195.031744)"><g><path d="M 60.097656 -44.128906 C 68.261719 -46.96875 72.519531 -52.644531 72.519531 -60.570312 C 72.519531 -71.457031 64.949219 -79.5 51.699219 -81.15625 C 47.558594 -81.628906 45.429688 -81.628906 41.171875 -81.628906 L 10.054688 -81.628906 L 10.054688 0 L 41.050781 0 C 45.902344 0 48.625 0 52.644531 -0.472656 C 63.648438 -1.894531 75.480469 -9.347656 75.480469 -24.488281 C 75.480469 -34.78125 70.511719 -41.40625 60.097656 -44.128906 Z M 28.628906 -67.195312 L 39.394531 -67.195312 C 41.289062 -67.195312 43.417969 -67.078125 45.074219 -66.84375 C 49.925781 -66.132812 53.117188 -63.53125 53.117188 -58.085938 C 53.117188 -52.644531 50.28125 -49.925781 45.191406 -49.097656 C 43.535156 -48.859375 41.644531 -48.742188 39.75 -48.742188 L 28.628906 -48.742188 Z M 46.96875 -14.667969 C 45.429688 -14.550781 43.535156 -14.550781 41.644531 -14.550781 L 28.628906 -14.550781 L 28.628906 -35.136719 L 40.933594 -35.136719 C 42.828125 -35.136719 44.71875 -35.136719 46.613281 -34.898438 C 51.816406 -34.425781 56.078125 -31.351562 56.078125 -24.726562 C 56.078125 -18.574219 51.816406 -15.023438 46.96875 -14.667969 Z M 46.96875 -14.667969 "/></g></g></g><path stroke-linecap="butt" transform="matrix(0.75, 0, 0, 0.75, 204.702941, 116.917668)" fill="none" stroke-linejoin="miter" d="M 0.000244723 4.500402 L 54.890873 4.500402 " stroke="#ffffff" stroke-width="9" stroke-opacity="1" stroke-miterlimit="4"/><g clip-path="url(#062ab0523d)"><g clip-path="url(#eab7376979)"><path fill="#ffffff" d="M 213 167.078125 L 237.574219 167.078125 L 237.574219 191.652344 L 213 191.652344 Z M 213 167.078125 " fill-opacity="1" fill-rule="nonzero"/></g></g><g fill="#ffffff" fill-opacity="1"><g transform="translate(133.53546, 268.342247)"><g><path d="M 3.375 0 L 8.089844 0 L 8.089844 -10.945312 L 19.574219 -10.945312 L 19.574219 0 L 24.285156 0 L 24.285156 -26.214844 L 19.574219 -26.214844 L 19.574219 -15.269531 L 8.089844 -15.269531 L 8.089844 -26.214844 L 3.375 -26.214844 Z M 3.375 0 "/></g></g></g><g fill="#ffffff" fill-opacity="1"><g transform="translate(161.19481, 268.342247)"><g><path d="M 7.753906 0.371094 C 9.960938 0.371094 11.929688 -0.332031 13.523438 -2.652344 L 13.820312 0 L 17.550781 0 L 17.550781 -11.242188 C 17.550781 -15.769531 14.582031 -18.921875 9.535156 -18.921875 C 5.882812 -18.921875 3.523438 -17.289062 1.742188 -14.859375 L 5.214844 -12.355469 C 6.011719 -13.710938 7.4375 -14.972656 9.574219 -14.972656 C 11.964844 -14.972656 13.226562 -13.414062 13.226562 -11.058594 L 8.402344 -11.058594 C 4.25 -11.058594 1.019531 -9.722656 1.019531 -5.695312 C 1.019531 -1.816406 3.953125 0.371094 7.753906 0.371094 Z M 8.402344 -3.449219 C 6.640625 -3.449219 5.660156 -4.324219 5.660156 -5.546875 C 5.660156 -6.714844 6.605469 -7.792969 8.664062 -7.792969 L 13.226562 -7.792969 C 13.152344 -5.472656 10.984375 -3.449219 8.402344 -3.449219 Z M 8.402344 -3.449219 "/></g></g></g><g fill="#ffffff" fill-opacity="1"><g transform="translate(180.877284, 268.342247)"><g><path d="M 2.726562 8.125 L 7.328125 8.125 L 7.328125 -1.855469 C 8.625 -0.257812 10.667969 0.371094 12.617188 0.371094 C 17.734375 0.371094 20.554688 -4.136719 20.554688 -9.277344 C 20.554688 -14.433594 17.734375 -18.921875 12.542969 -18.921875 C 10.554688 -18.921875 8.625 -18.273438 7.328125 -16.679688 L 7.328125 -18.535156 L 2.726562 -18.535156 Z M 11.429688 -3.804688 C 8.328125 -3.804688 6.921875 -6.160156 6.921875 -9.277344 C 6.921875 -12.394531 8.328125 -14.859375 11.429688 -14.859375 C 14.546875 -14.859375 15.953125 -12.394531 15.953125 -9.277344 C 15.953125 -6.160156 14.546875 -3.804688 11.429688 -3.804688 Z M 11.429688 -3.804688 "/></g></g></g><g fill="#ffffff" fill-opacity="1"><g transform="translate(202.600355, 268.342247)"><g><path d="M 2.726562 8.125 L 7.328125 8.125 L 7.328125 -1.855469 C 8.625 -0.257812 10.667969 0.371094 12.617188 0.371094 C 17.734375 0.371094 20.554688 -4.136719 20.554688 -9.277344 C 20.554688 -14.433594 17.734375 -18.921875 12.542969 -18.921875 C 10.554688 -18.921875 8.625 -18.273438 7.328125 -16.679688 L 7.328125 -18.535156 L 2.726562 -18.535156 Z M 11.429688 -3.804688 C 8.328125 -3.804688 6.921875 -6.160156 6.921875 -9.277344 C 6.921875 -12.394531 8.328125 -14.859375 11.429688 -14.859375 C 14.546875 -14.859375 15.953125 -12.394531 15.953125 -9.277344 C 15.953125 -6.160156 14.546875 -3.804688 11.429688 -3.804688 Z M 11.429688 -3.804688 "/></g></g></g><g fill="#ffffff" fill-opacity="1"><g transform="translate(224.323425, 268.342247)"><g><path d="M 3.730469 7.976562 L 8.664062 7.976562 L 19.257812 -18.535156 L 14.285156 -18.535156 L 9.535156 -5.660156 L 4.859375 -18.535156 L -0.109375 -18.535156 L 7.144531 -0.5 Z M 3.730469 7.976562 "/></g></g></g><path stroke-linecap="butt" transform="matrix(0.75, 0, 0, 0.75, 127.752755, 290.001017)" fill="none" stroke-linejoin="miter" d="M 0.00153565 1.498644 L 162.001546 1.498644 " stroke="#ffffff" stroke-width="3" stroke-opacity="1" stroke-miterlimit="4"/><g fill="#ffffff" fill-opacity="1"><g transform="translate(140.78243, 330.852633)"><g><path d="M 3.375 0 L 13.597656 0 C 18.050781 0 22.152344 -2.726562 22.152344 -7.605469 C 22.152344 -10.222656 20.332031 -13.078125 17.941406 -14.027344 C 19.425781 -14.824219 20.851562 -16.753906 20.851562 -19.144531 C 20.851562 -24.394531 16.457031 -26.214844 12.46875 -26.214844 L 3.375 -26.214844 Z M 8.089844 -15.65625 L 8.089844 -21.964844 L 12.542969 -21.964844 C 14.785156 -21.964844 16.53125 -20.925781 16.53125 -18.886719 C 16.53125 -16.308594 14.75 -15.65625 12.914062 -15.65625 Z M 8.089844 -4.488281 L 8.089844 -11.59375 L 13.488281 -11.59375 C 15.953125 -11.59375 17.511719 -10 17.511719 -8.125 C 17.511719 -5.660156 16.101562 -4.488281 13.671875 -4.488281 Z M 8.089844 -4.488281 "/></g></g></g><g fill="#ffffff" fill-opacity="1"><g transform="translate(164.41624, 330.852633)"><g><path d="M 3.730469 7.976562 L 8.664062 7.976562 L 19.257812 -18.535156 L 14.285156 -18.535156 L 9.535156 -5.660156 L 4.859375 -18.535156 L -0.109375 -18.535156 L 7.144531 -0.5 Z M 3.730469 7.976562 "/></g></g></g><g fill="#ffffff" fill-opacity="1"><g transform="translate(183.56074, 330.852633)"><g><path d="M 9.277344 0.371094 C 10.554688 0.371094 11.929688 0.0742188 12.617188 -0.183594 L 12.617188 -4.285156 C 12.003906 -3.988281 10.984375 -3.617188 10.035156 -3.617188 C 8.847656 -3.617188 7.941406 -4.136719 7.941406 -5.917969 L 7.941406 -14.75 L 12.617188 -14.75 L 12.617188 -18.535156 L 7.941406 -18.535156 L 7.941406 -26.363281 L 3.523438 -23.132812 L 3.523438 -18.535156 L 0.464844 -18.535156 L 0.464844 -14.75 L 3.449219 -14.75 L 3.449219 -5.121094 C 3.449219 -1.742188 5.621094 0.371094 9.277344 0.371094 Z M 9.277344 0.371094 "/></g></g></g><g fill="#ffffff" fill-opacity="1"><g transform="translate(197.548097, 330.852633)"><g><path d="M 10.40625 0.371094 C 13.523438 0.371094 15.992188 -0.722656 18.015625 -2.96875 L 14.898438 -5.695312 C 13.597656 -4.25 12.113281 -3.730469 10.445312 -3.730469 C 7.53125 -3.730469 6.195312 -5.363281 5.808594 -7.792969 L 18.535156 -7.792969 C 18.625 -8.050781 18.699219 -8.8125 18.699219 -9.574219 C 18.699219 -13.710938 16.605469 -18.921875 10.109375 -18.921875 C 3.839844 -18.921875 1.019531 -14.027344 1.019531 -9.203125 C 1.019531 -4.210938 4.027344 0.371094 10.40625 0.371094 Z M 5.808594 -11.058594 C 6.234375 -13.375 7.402344 -15.121094 10.074219 -15.121094 C 12.429688 -15.121094 13.953125 -13.710938 14.25 -11.058594 Z M 5.808594 -11.058594 "/></g></g></g><g fill="#ffffff" fill-opacity="1"><g transform="translate(217.341877, 330.852633)"><g><path d="M 8.273438 0.371094 C 11.78125 0.371094 15.507812 -1.519531 15.507812 -5.808594 C 15.507812 -12.617188 6.085938 -10.945312 6.085938 -13.746094 C 6.085938 -14.621094 6.996094 -15.34375 8.476562 -15.34375 C 10.480469 -15.34375 11.519531 -14.136719 12.152344 -12.988281 L 15.65625 -14.898438 C 14.25 -17.402344 11.816406 -18.921875 8.625 -18.921875 C 5.046875 -18.921875 1.742188 -17.066406 1.742188 -13.152344 C 1.742188 -6.605469 11.058594 -8.699219 11.058594 -5.585938 C 11.058594 -4.601562 10.148438 -3.375 8.050781 -3.375 C 5.585938 -3.375 4.601562 -5.082031 4.101562 -6.417969 L 0.5 -4.824219 C 1.410156 -1.964844 4.378906 0.371094 8.273438 0.371094 Z M 8.273438 0.371094 "/></g></g></g></svg>