<svg xmlns="http://www.w3.org/2000/svg" xmlns:xlink="http://www.w3.org/1999/xlink" width="500" zoomAndPan="magnify" viewBox="0 0 375 374.999991" height="500" preserveAspectRatio="xMidYMid meet" version="1.0"><defs><g/><clipPath id="e1c7374473"><path d="M 151 86.753906 L 224 86.753906 L 224 159 L 151 159 Z M 151 86.753906 " clip-rule="nonzero"/></clipPath><clipPath id="8475d29678"><path d="M 91 93 L 284 93 L 284 223.253906 L 91 223.253906 Z M 91 93 " clip-rule="nonzero"/></clipPath></defs><rect x="-37.5" width="450" fill="#ffffff" y="-37.499999" height="449.999989" fill-opacity="1"/><rect x="-37.5" width="450" fill="#ffffff" y="-37.499999" height="449.999989" fill-opacity="1"/><g clip-path="url(#e1c7374473)"><path fill="#ffc66f" d="M 223.417969 122.4375 C 223.417969 123.609375 223.359375 124.773438 223.246094 125.9375 C 223.132812 127.101562 222.960938 128.253906 222.730469 129.402344 C 222.503906 130.546875 222.21875 131.679688 221.878906 132.796875 C 221.539062 133.914062 221.144531 135.015625 220.695312 136.09375 C 220.25 137.175781 219.75 138.230469 219.195312 139.261719 C 218.644531 140.292969 218.042969 141.292969 217.390625 142.265625 C 216.742188 143.234375 216.046875 144.171875 215.300781 145.078125 C 214.558594 145.980469 213.773438 146.84375 212.945312 147.671875 C 212.117188 148.496094 211.25 149.28125 210.34375 150.023438 C 209.441406 150.765625 208.5 151.460938 207.527344 152.109375 C 206.554688 152.757812 205.550781 153.359375 204.515625 153.910156 C 203.484375 154.460938 202.425781 154.960938 201.34375 155.40625 C 200.261719 155.855469 199.164062 156.246094 198.042969 156.585938 C 196.921875 156.925781 195.785156 157.210938 194.636719 157.4375 C 193.488281 157.664062 192.332031 157.835938 191.167969 157.953125 C 190 158.066406 188.832031 158.125 187.660156 158.125 C 186.492188 158.125 185.324219 158.066406 184.15625 157.953125 C 182.992188 157.835938 181.835938 157.664062 180.6875 157.4375 C 179.539062 157.210938 178.402344 156.925781 177.28125 156.585938 C 176.160156 156.246094 175.058594 155.855469 173.976562 155.40625 C 172.898438 154.960938 171.839844 154.460938 170.804688 153.910156 C 169.773438 153.359375 168.769531 152.757812 167.796875 152.109375 C 166.824219 151.460938 165.882812 150.765625 164.976562 150.023438 C 164.074219 149.28125 163.207031 148.496094 162.378906 147.671875 C 161.550781 146.84375 160.765625 145.980469 160.023438 145.078125 C 159.277344 144.171875 158.582031 143.234375 157.929688 142.265625 C 157.28125 141.292969 156.679688 140.292969 156.128906 139.261719 C 155.574219 138.230469 155.074219 137.175781 154.628906 136.09375 C 154.179688 135.015625 153.785156 133.914062 153.445312 132.796875 C 153.105469 131.679688 152.820312 130.546875 152.59375 129.402344 C 152.363281 128.253906 152.191406 127.101562 152.078125 125.9375 C 151.960938 124.773438 151.90625 123.609375 151.90625 122.4375 C 151.90625 121.269531 151.960938 120.105469 152.078125 118.941406 C 152.191406 117.777344 152.363281 116.625 152.59375 115.476562 C 152.820312 114.332031 153.105469 113.199219 153.445312 112.082031 C 153.785156 110.960938 154.179688 109.863281 154.628906 108.785156 C 155.074219 107.703125 155.574219 106.648438 156.128906 105.617188 C 156.679688 104.585938 157.28125 103.585938 157.929688 102.613281 C 158.582031 101.640625 159.277344 100.703125 160.023438 99.800781 C 160.765625 98.898438 161.550781 98.03125 162.378906 97.207031 C 163.207031 96.378906 164.074219 95.597656 164.976562 94.855469 C 165.882812 94.113281 166.824219 93.417969 167.796875 92.769531 C 168.769531 92.121094 169.773438 91.519531 170.804688 90.96875 C 171.839844 90.417969 172.898438 89.917969 173.976562 89.472656 C 175.058594 89.023438 176.160156 88.628906 177.28125 88.292969 C 178.402344 87.953125 179.539062 87.667969 180.6875 87.441406 C 181.835938 87.210938 182.992188 87.042969 184.15625 86.925781 C 185.324219 86.8125 186.492188 86.753906 187.660156 86.753906 C 188.832031 86.753906 190 86.8125 191.167969 86.925781 C 192.332031 87.042969 193.488281 87.210938 194.636719 87.441406 C 195.785156 87.667969 196.921875 87.953125 198.042969 88.292969 C 199.164062 88.628906 200.261719 89.023438 201.34375 89.472656 C 202.425781 89.917969 203.484375 90.417969 204.515625 90.96875 C 205.550781 91.519531 206.554688 92.121094 207.527344 92.769531 C 208.5 93.417969 209.441406 94.113281 210.34375 94.855469 C 211.25 95.597656 212.117188 96.378906 212.945312 97.207031 C 213.773438 98.03125 214.558594 98.898438 215.300781 99.800781 C 216.046875 100.703125 216.742188 101.640625 217.390625 102.613281 C 218.042969 103.585938 218.644531 104.585938 219.195312 105.617188 C 219.75 106.648438 220.25 107.703125 220.695312 108.785156 C 221.144531 109.863281 221.539062 110.960938 221.878906 112.082031 C 222.21875 113.199219 222.503906 114.332031 222.730469 115.476562 C 222.960938 116.625 223.132812 117.777344 223.246094 118.941406 C 223.359375 120.105469 223.417969 121.269531 223.417969 122.4375 Z M 223.417969 122.4375 " fill-opacity="1" fill-rule="nonzero"/></g><g clip-path="url(#8475d29678)"><path fill="#000000" d="M 187.660156 223.253906 C 146.523438 223.253906 113.207031 189.972656 113.207031 148.953125 C 113.207031 127.140625 122.632812 107.53125 137.636719 93.925781 C 126.375 106.964844 119.492188 124.40625 119.492188 143.617188 C 119.492188 184.003906 150.035156 216.75 187.695312 216.75 C 225.355469 216.75 255.898438 184.003906 255.898438 143.617188 C 255.898438 124.441406 249.015625 107 237.753906 93.925781 C 252.757812 107.53125 262.183594 127.140625 262.183594 148.953125 C 262.183594 190.003906 228.832031 223.253906 187.730469 223.253906 Z M 227.460938 160.191406 C 225.65625 167.359375 229.46875 179.234375 230.972656 182.269531 C 224.519531 176.53125 221.882812 165.425781 225.992188 157.691406 C 230.535156 149.152344 242.097656 136.511719 250.351562 132.378906 C 250.351562 134.679688 249.515625 137.144531 251.320312 139.949219 C 250.117188 139.347656 249.25 137.644531 248.78125 135.945312 C 248.179688 138.246094 248.246094 141.214844 249.984375 145.015625 C 248.78125 144.28125 246.84375 141.816406 246.042969 138.179688 C 245.441406 139.8125 245.074219 145.015625 248.414062 151.554688 C 246.777344 150.453125 243.136719 145.816406 243.066406 140.714844 C 242.332031 142.28125 241.5625 147.617188 244.839844 156.621094 C 243.734375 155.722656 240.730469 151.785156 239.992188 145.417969 C 239.257812 148.152344 238.355469 153.820312 242.367188 160.957031 C 240.730469 160.359375 236.550781 153.886719 237.386719 147.652344 C 236.71875 151.285156 236.484375 154.121094 239.625 165.992188 C 237.921875 164.660156 234.847656 157.089844 234.847656 150.519531 C 233.644531 152.152344 232.175781 159.355469 237.453125 172.363281 C 235.582031 170.960938 231.574219 161.957031 231.136719 155.1875 C 230.035156 156.6875 227.429688 162.457031 234.347656 174.230469 C 232.640625 173.332031 227.796875 167.628906 227.496094 160.191406 Z M 223.652344 159.222656 L 223.152344 160.992188 C 223.152344 160.992188 219.175781 164.027344 217.503906 167.828125 C 217.371094 166.261719 219.207031 161.558594 223.652344 159.222656 Z M 222.917969 164.292969 C 222.917969 164.292969 221.480469 170.527344 224.253906 180.265625 C 223.152344 178.964844 220.613281 175.464844 220.679688 169.195312 C 219.207031 170.929688 217.804688 174.097656 217.535156 176.097656 C 217.167969 173.265625 217.101562 168.894531 222.882812 164.292969 Z M 248.546875 123.972656 L 248.449219 122.070312 C 248.449219 122.070312 223.6875 121.972656 209.75 136.144531 C 201.597656 144.449219 199.960938 155.222656 202.199219 165.925781 C 202.734375 163.09375 200.660156 145.785156 217.070312 134.144531 C 208.648438 145.25 208.546875 158.855469 209.117188 161.992188 C 211.921875 140.816406 221.582031 132.976562 225.257812 130.710938 C 218.941406 139.015625 217.304688 151.585938 218.003906 153.820312 C 220.511719 137.28125 230.503906 129.175781 233.644531 126.972656 C 225.257812 136.414062 225.890625 146.117188 226.792969 147.785156 C 228.964844 135.246094 234.847656 129.710938 238.023438 127.609375 C 234.347656 133.679688 233.746094 138.148438 233.945312 139.980469 C 238.554688 128.175781 248.582031 123.972656 248.582031 123.972656 Z M 210.183594 134.042969 C 210.183594 134.042969 200.058594 141.546875 195.347656 156.554688 C 193.644531 152.921875 195.28125 138.582031 210.183594 134.042969 Z M 249.148438 119.972656 L 249.550781 119.105469 C 249.550781 119.105469 231.539062 105.265625 216.535156 105.765625 C 208.414062 106.03125 195.582031 114.335938 193.375 121.90625 C 201.832031 113.234375 211.1875 108.5 217.605469 107.898438 C 218.003906 107.863281 218.371094 107.832031 218.773438 107.832031 C 203.5 114.066406 201.296875 123.039062 200.328125 126.472656 C 210.988281 111.300781 223.351562 110.734375 224.21875 110.800781 C 210.621094 118.371094 208.914062 125.007812 208.816406 126.40625 C 223.117188 110.667969 233.007812 113 233.8125 113.300781 C 227.160156 115.4375 224.152344 121.472656 224.085938 122.871094 C 230.804688 115.503906 238.054688 114.402344 238.054688 114.402344 C 234.113281 115.800781 232.175781 120.039062 232.242188 121.171875 C 234.914062 116.371094 241.429688 116.070312 241.429688 116.070312 C 239.828125 116.371094 237.6875 117.335938 236.316406 120.4375 C 241.296875 116.300781 243.96875 117.335938 249.148438 120.003906 Z M 262.050781 127.507812 C 262.050781 127.507812 265.289062 130.410156 264.988281 136.511719 C 266.527344 133.246094 265.65625 128.875 262.050781 127.507812 Z M 262.449219 126.441406 C 268.0625 128.542969 268.164062 136.046875 268.632812 141.75 C 268.632812 141.75 269.566406 138.582031 269.300781 132.042969 C 271.070312 135.914062 273.378906 143.148438 271.90625 152.753906 C 271.90625 152.753906 276.953125 143.917969 271.941406 132.578125 C 280.128906 141.515625 276.351562 154.085938 276.417969 154.855469 C 284.203125 132.578125 263.050781 125.007812 262.984375 124.972656 L 262.417969 126.40625 Z M 283.738281 149.953125 C 283.738281 149.953125 284.875 140.082031 277.019531 135.878906 C 277.453125 136.746094 277.820312 137.613281 278.121094 138.511719 C 278.121094 138.511719 282.902344 141.546875 283.703125 149.917969 Z M 276.652344 110.898438 C 272.441406 117.46875 265.125 120.105469 262.550781 124.207031 C 263.519531 124.105469 272.074219 120.9375 278.890625 125.273438 C 279.09375 124.441406 277.1875 119.171875 271.839844 119.738281 C 273.980469 118.738281 277.320312 117.9375 279.726562 121.003906 C 279.527344 119.472656 276.988281 115.503906 273.644531 116.871094 C 275.148438 115.203125 276.753906 113.96875 276.617188 110.898438 Z M 260.109375 124.605469 L 262.785156 112.96875 C 264.253906 106.597656 270.46875 106.0625 272.410156 110.734375 C 271.304688 109.566406 267.328125 108.230469 265.824219 111.332031 C 266.761719 110.964844 269.46875 110.667969 271.105469 112.902344 C 270.671875 112.699219 267.128906 111.132812 264.054688 116.371094 C 264.554688 115.9375 266.628906 115.035156 267.863281 116.636719 C 266.996094 116.636719 263.554688 118.035156 260.078125 124.640625 Z M 147.796875 160.191406 C 149.597656 167.359375 145.789062 179.234375 144.285156 182.269531 C 150.734375 176.53125 153.375 165.425781 149.265625 157.691406 C 144.71875 149.152344 133.15625 136.511719 124.902344 132.378906 C 124.902344 134.679688 125.738281 137.144531 123.933594 139.949219 C 125.136719 139.347656 126.007812 137.644531 126.476562 135.945312 C 127.074219 138.246094 127.007812 141.214844 125.273438 145.015625 C 126.476562 144.28125 128.414062 141.816406 129.214844 138.179688 C 129.816406 139.8125 130.183594 145.015625 126.84375 151.554688 C 128.480469 150.453125 132.121094 145.816406 132.1875 140.714844 C 132.925781 142.28125 133.691406 147.617188 130.417969 156.621094 C 131.519531 155.722656 134.527344 151.785156 135.261719 145.417969 C 136 148.152344 136.902344 153.820312 132.890625 160.957031 C 134.527344 160.359375 138.707031 153.886719 137.871094 147.652344 C 138.539062 151.285156 138.773438 154.121094 135.632812 165.992188 C 137.335938 164.660156 140.410156 157.089844 140.410156 150.519531 C 141.613281 152.152344 143.082031 159.355469 137.804688 172.363281 C 139.675781 170.960938 143.683594 161.957031 144.117188 155.1875 C 145.222656 156.6875 147.828125 162.457031 140.910156 174.230469 C 142.617188 173.332031 147.460938 167.628906 147.761719 160.191406 Z M 151.605469 159.222656 L 152.105469 160.992188 C 152.105469 160.992188 156.082031 164.027344 157.753906 167.828125 C 157.886719 166.261719 156.050781 161.558594 151.605469 159.222656 Z M 152.339844 164.292969 C 152.339844 164.292969 153.777344 170.527344 151.003906 180.265625 C 152.105469 178.964844 154.644531 175.464844 154.578125 169.195312 C 156.050781 170.929688 157.453125 174.097656 157.71875 176.097656 C 158.085938 173.265625 158.15625 168.894531 152.375 164.292969 Z M 126.707031 123.972656 L 126.808594 122.070312 C 126.808594 122.070312 151.570312 121.972656 165.507812 136.144531 C 173.660156 144.449219 175.296875 155.222656 173.058594 165.925781 C 172.523438 163.09375 174.59375 145.785156 158.1875 134.144531 C 166.609375 145.25 166.710938 158.855469 166.140625 161.992188 C 163.335938 140.816406 153.675781 132.976562 150 130.710938 C 156.316406 139.015625 157.953125 151.585938 157.253906 153.820312 C 154.746094 137.28125 144.753906 129.175781 141.613281 126.972656 C 150 136.414062 149.367188 146.117188 148.464844 147.785156 C 146.292969 135.246094 140.410156 129.710938 137.234375 127.609375 C 140.910156 133.679688 141.511719 138.148438 141.3125 139.980469 C 136.699219 128.175781 126.675781 123.972656 126.675781 123.972656 Z M 165.070312 134.042969 C 165.070312 134.042969 175.195312 141.546875 179.910156 156.554688 C 181.613281 152.921875 179.976562 138.582031 165.070312 134.042969 Z M 126.105469 119.972656 L 125.707031 119.105469 C 125.707031 119.105469 143.71875 105.265625 158.722656 105.765625 C 166.84375 106.03125 179.675781 114.335938 181.878906 121.90625 C 173.425781 113.234375 164.070312 108.5 157.652344 107.898438 C 157.253906 107.863281 156.882812 107.832031 156.484375 107.832031 C 171.753906 114.066406 173.960938 123.039062 174.929688 126.472656 C 164.269531 111.300781 151.90625 110.734375 151.035156 110.800781 C 164.636719 118.371094 166.339844 125.007812 166.441406 126.40625 C 152.140625 110.667969 142.246094 113 141.445312 113.300781 C 148.09375 115.4375 151.101562 121.472656 151.171875 122.871094 C 144.453125 115.503906 137.203125 114.402344 137.203125 114.402344 C 141.144531 115.800781 143.082031 120.039062 143.015625 121.171875 C 140.34375 116.371094 133.828125 116.070312 133.828125 116.070312 C 135.429688 116.371094 137.570312 117.335938 138.9375 120.4375 C 133.960938 116.300781 131.285156 117.335938 126.105469 120.003906 Z M 113.207031 127.507812 C 113.207031 127.507812 109.964844 130.410156 110.265625 136.511719 C 108.730469 133.246094 109.597656 128.875 113.207031 127.507812 Z M 112.808594 126.441406 C 107.191406 128.542969 107.09375 136.046875 106.625 141.75 C 106.625 141.75 105.6875 138.582031 105.957031 132.042969 C 104.183594 135.914062 101.878906 143.148438 103.351562 152.753906 C 103.351562 152.753906 98.304688 143.917969 103.316406 132.578125 C 95.128906 141.515625 98.90625 154.085938 98.839844 154.855469 C 91.050781 132.578125 112.207031 125.007812 112.273438 124.972656 L 112.839844 126.40625 Z M 91.519531 149.953125 C 91.519531 149.953125 90.382812 140.082031 98.238281 135.878906 C 97.800781 136.746094 97.433594 137.613281 97.132812 138.511719 C 97.132812 138.511719 92.355469 141.546875 91.554688 149.917969 Z M 98.605469 110.898438 C 102.816406 117.46875 110.132812 120.105469 112.707031 124.207031 C 111.738281 124.105469 103.183594 120.9375 96.367188 125.273438 C 96.164062 124.441406 98.070312 119.171875 103.417969 119.738281 C 101.277344 118.738281 97.9375 117.9375 95.53125 121.003906 C 95.730469 119.472656 98.269531 115.503906 101.613281 116.871094 C 100.109375 115.203125 98.503906 113.96875 98.636719 110.898438 Z M 115.144531 124.605469 L 112.472656 112.96875 C 111.003906 106.597656 104.785156 106.0625 102.847656 110.734375 C 103.953125 109.566406 107.929688 108.230469 109.433594 111.332031 C 108.496094 110.964844 105.789062 110.667969 104.152344 112.902344 C 104.585938 112.699219 108.128906 111.132812 111.203125 116.371094 C 110.703125 115.9375 108.628906 115.035156 107.394531 116.636719 C 108.261719 116.636719 111.703125 118.035156 115.179688 124.640625 Z M 115.144531 124.605469 " fill-opacity="1" fill-rule="evenodd"/></g><path fill="#000000" d="M 153.875 96.191406 C 153.875 96.191406 155.75 96.257812 160.027344 94.191406 C 160.460938 94.390625 160.929688 94.691406 161.53125 94.957031 L 160.761719 96.691406 L 163.167969 95.324219 C 163.367188 95.324219 163.535156 95.359375 163.769531 95.359375 C 164.269531 94.992188 164.503906 94.792969 164.835938 93.957031 C 168.648438 94.625 170.585938 93.089844 172.054688 92.457031 C 169.851562 92.722656 165.773438 91.890625 164.871094 91.855469 L 163.199219 93.859375 C 162.464844 93.691406 161.53125 93.257812 160.328125 92.359375 C 159.15625 92.859375 157.351562 95.125 153.875 96.226562 Z M 153.875 96.191406 " fill-opacity="1" fill-rule="evenodd"/><path fill="#000000" d="M 175.195312 96.59375 C 175.195312 96.59375 172.222656 98.828125 170.585938 99.226562 C 171.1875 98.328125 172.792969 96.59375 173.324219 94.992188 L 176.066406 95.859375 L 178.304688 93.757812 C 178.304688 93.757812 181.980469 95.925781 184.285156 96.160156 C 183.21875 96.625 181.011719 97.226562 179.375 96.792969 C 177.601562 96.328125 176.867188 95.925781 175.265625 97.761719 C 174.761719 98.328125 174.761719 98.5625 174.226562 98.09375 L 175.164062 96.59375 Z M 175.195312 96.59375 " fill-opacity="1" fill-rule="evenodd"/><path fill="#000000" d="M 242.566406 180.46875 C 241.730469 181.902344 240.863281 183.300781 239.960938 184.636719 C 239.292969 184.769531 238.65625 184.9375 238.023438 185.167969 C 236.71875 185.636719 235.515625 186.371094 234.480469 187.269531 L 234.445312 187.304688 C 233.074219 188.539062 231.4375 189.472656 229.667969 190.140625 C 227.894531 190.773438 225.992188 191.140625 224.054688 191.140625 C 222.113281 191.140625 220.210938 190.804688 218.4375 190.140625 C 216.667969 189.503906 215.0625 188.539062 213.660156 187.304688 L 213.628906 187.269531 C 212.589844 186.371094 211.386719 185.636719 210.085938 185.167969 C 208.75 184.667969 207.3125 184.4375 205.839844 184.4375 C 204.371094 184.4375 202.933594 184.703125 201.597656 185.167969 C 200.292969 185.636719 199.089844 186.371094 198.054688 187.269531 L 198.019531 187.304688 C 196.652344 188.539062 195.015625 189.472656 193.242188 190.140625 C 191.472656 190.773438 189.566406 191.140625 187.628906 191.140625 C 185.691406 191.140625 183.785156 190.804688 182.015625 190.140625 C 180.242188 189.503906 178.640625 188.539062 177.234375 187.304688 L 177.203125 187.269531 C 176.167969 186.371094 174.964844 185.636719 173.660156 185.167969 C 172.324219 184.667969 170.886719 184.4375 169.414062 184.4375 C 167.945312 184.4375 166.507812 184.703125 165.171875 185.167969 C 163.867188 185.636719 162.664062 186.371094 161.628906 187.269531 L 161.597656 187.304688 C 160.226562 188.539062 158.589844 189.472656 156.816406 190.140625 C 155.046875 190.773438 153.140625 191.140625 151.203125 191.140625 C 149.265625 191.140625 147.359375 190.804688 145.589844 190.140625 C 143.816406 189.503906 142.214844 188.539062 140.8125 187.304688 L 140.777344 187.269531 C 139.742188 186.371094 138.539062 185.636719 137.234375 185.167969 C 136.601562 184.9375 135.964844 184.769531 135.296875 184.636719 C 134.394531 183.269531 133.492188 181.902344 132.691406 180.46875 L 132.992188 180.46875 C 134.929688 180.46875 136.835938 180.800781 138.605469 181.46875 C 140.375 182.101562 141.980469 183.070312 143.382812 184.300781 L 143.417969 184.335938 C 144.453125 185.234375 145.65625 185.96875 146.960938 186.4375 C 148.296875 186.9375 149.734375 187.171875 151.203125 187.171875 C 152.675781 187.171875 154.109375 186.902344 155.449219 186.4375 C 156.75 185.9375 157.953125 185.234375 158.988281 184.335938 L 159.023438 184.300781 C 160.394531 183.070312 162.03125 182.136719 163.800781 181.46875 C 165.574219 180.835938 167.476562 180.46875 169.414062 180.46875 C 171.355469 180.46875 173.257812 180.800781 175.03125 181.46875 C 176.800781 182.101562 178.40625 183.070312 179.808594 184.300781 L 179.84375 184.335938 C 180.878906 185.234375 182.082031 185.96875 183.382812 186.4375 C 184.722656 186.9375 186.15625 187.171875 187.628906 187.171875 C 189.097656 187.171875 190.535156 186.902344 191.871094 186.4375 C 193.175781 185.9375 194.378906 185.234375 195.414062 184.335938 L 195.449219 184.300781 C 196.816406 183.070312 198.457031 182.136719 200.226562 181.46875 C 201.996094 180.835938 203.902344 180.46875 205.839844 180.46875 C 207.777344 180.46875 209.683594 180.800781 211.453125 181.46875 C 213.226562 182.101562 214.832031 183.070312 216.234375 184.300781 L 216.265625 184.335938 C 217.304688 185.234375 218.507812 185.96875 219.808594 186.4375 C 221.144531 186.9375 222.582031 187.171875 224.054688 187.171875 C 225.523438 187.171875 226.960938 186.902344 228.296875 186.4375 C 229.601562 185.9375 230.804688 185.234375 231.839844 184.335938 L 231.875 184.300781 C 233.242188 183.070312 234.878906 182.136719 236.652344 181.46875 C 238.421875 180.835938 240.328125 180.46875 242.265625 180.46875 Z M 229.265625 196.976562 C 227.261719 198.808594 225.121094 200.511719 222.917969 202.042969 C 221.378906 201.945312 219.875 201.609375 218.4375 201.078125 C 216.667969 200.445312 215.0625 199.476562 213.660156 198.242188 L 213.628906 198.210938 C 212.589844 197.308594 211.386719 196.574219 210.085938 196.109375 C 208.75 195.609375 207.3125 195.375 205.839844 195.375 C 204.371094 195.375 202.933594 195.640625 201.597656 196.109375 C 200.292969 196.609375 199.089844 197.308594 198.054688 198.210938 L 198.019531 198.242188 C 196.652344 199.476562 195.015625 200.410156 193.242188 201.078125 C 191.472656 201.710938 189.566406 202.078125 187.628906 202.078125 C 185.691406 202.078125 183.785156 201.746094 182.015625 201.078125 C 180.242188 200.445312 178.640625 199.476562 177.234375 198.242188 L 177.203125 198.210938 C 176.167969 197.308594 174.964844 196.574219 173.660156 196.109375 C 172.324219 195.609375 170.886719 195.375 169.414062 195.375 C 167.945312 195.375 166.507812 195.640625 165.171875 196.109375 C 163.867188 196.609375 162.664062 197.308594 161.628906 198.210938 L 161.597656 198.242188 C 160.226562 199.476562 158.589844 200.410156 156.816406 201.078125 C 155.414062 201.609375 153.875 201.910156 152.339844 202.042969 C 150.132812 200.476562 147.996094 198.777344 145.992188 196.976562 C 146.324219 197.140625 146.625 197.277344 146.960938 197.375 C 148.296875 197.875 149.734375 198.109375 151.203125 198.109375 C 152.675781 198.109375 154.109375 197.84375 155.449219 197.375 C 156.75 196.875 157.953125 196.175781 158.988281 195.273438 L 159.023438 195.242188 C 160.394531 194.007812 162.03125 193.074219 163.800781 192.40625 C 165.574219 191.773438 167.476562 191.40625 169.414062 191.40625 C 171.355469 191.40625 173.257812 191.738281 175.03125 192.40625 C 176.800781 193.039062 178.40625 194.007812 179.808594 195.242188 L 179.84375 195.273438 C 180.878906 196.175781 182.082031 196.910156 183.382812 197.375 C 184.722656 197.875 186.15625 198.109375 187.628906 198.109375 C 189.097656 198.109375 190.535156 197.84375 191.871094 197.375 C 193.175781 196.875 194.378906 196.175781 195.414062 195.273438 L 195.449219 195.242188 C 196.816406 194.007812 198.457031 193.074219 200.226562 192.40625 C 201.996094 191.773438 203.902344 191.40625 205.839844 191.40625 C 207.777344 191.40625 209.683594 191.738281 211.453125 192.40625 C 213.226562 193.039062 214.832031 194.007812 216.234375 195.242188 L 216.265625 195.273438 C 217.304688 196.175781 218.507812 196.910156 219.808594 197.375 C 221.144531 197.875 222.582031 198.109375 224.054688 198.109375 C 225.523438 198.109375 226.960938 197.84375 228.296875 197.375 C 228.632812 197.242188 228.964844 197.109375 229.265625 196.976562 Z M 216.199219 206.179688 C 214.898438 206.878906 213.558594 207.515625 212.191406 208.113281 C 211.523438 207.714844 210.820312 207.347656 210.085938 207.082031 C 208.75 206.578125 207.3125 206.347656 205.839844 206.347656 C 204.371094 206.347656 202.933594 206.613281 201.597656 207.082031 C 200.292969 207.546875 199.089844 208.28125 198.054688 209.179688 L 198.019531 209.214844 C 196.652344 210.449219 195.015625 211.382812 193.242188 212.050781 C 191.472656 212.683594 189.566406 213.050781 187.628906 213.050781 C 185.691406 213.050781 183.785156 212.714844 182.015625 212.050781 C 180.242188 211.414062 178.640625 210.449219 177.234375 209.214844 L 177.203125 209.179688 C 176.167969 208.28125 174.964844 207.546875 173.660156 207.082031 C 172.324219 206.578125 170.886719 206.347656 169.414062 206.347656 C 167.945312 206.347656 166.507812 206.613281 165.171875 207.082031 C 164.4375 207.347656 163.734375 207.679688 163.066406 208.113281 C 161.695312 207.515625 160.359375 206.878906 159.054688 206.179688 C 160.425781 204.980469 162.03125 204.046875 163.800781 203.378906 C 165.574219 202.746094 167.476562 202.378906 169.414062 202.378906 C 171.355469 202.378906 173.257812 202.710938 175.03125 203.378906 C 176.800781 204.011719 178.40625 204.980469 179.808594 206.214844 L 179.84375 206.246094 C 180.878906 207.148438 182.082031 207.878906 183.382812 208.347656 C 184.722656 208.847656 186.15625 209.082031 187.628906 209.082031 C 189.097656 209.082031 190.535156 208.816406 191.871094 208.347656 C 193.175781 207.878906 194.378906 207.148438 195.414062 206.246094 L 195.449219 206.214844 C 196.816406 204.980469 198.457031 204.046875 200.226562 203.378906 C 201.996094 202.746094 203.902344 202.378906 205.839844 202.378906 C 207.777344 202.378906 209.683594 202.710938 211.453125 203.378906 C 213.191406 204.011719 214.832031 204.980469 216.199219 206.179688 Z M 216.199219 206.179688 " fill-opacity="1" fill-rule="evenodd"/><g fill="#000000" fill-opacity="1"><g transform="translate(105.807046, 263.030316)"><g><path d="M 1.53125 0 L 1.53125 -18.03125 L 6.609375 -18.03125 L 6.609375 -10.546875 L 13.03125 -18.03125 L 19.078125 -18.03125 L 11.203125 -9 C 11.609375 -8.769531 11.972656 -8.484375 12.296875 -8.140625 C 12.617188 -7.804688 12.898438 -7.4375 13.140625 -7.03125 L 14.125 -5.328125 C 14.5625 -4.535156 15.234375 -4.140625 16.140625 -4.140625 C 16.859375 -4.140625 17.507812 -4.316406 18.09375 -4.671875 L 19.265625 -0.765625 C 18.847656 -0.441406 18.300781 -0.179688 17.625 0.015625 C 16.945312 0.210938 16.265625 0.3125 15.578125 0.3125 C 13.015625 0.3125 11.1875 -0.628906 10.09375 -2.515625 L 8.4375 -5.328125 C 8.164062 -5.785156 7.898438 -6.128906 7.640625 -6.359375 C 7.390625 -6.585938 7.046875 -6.742188 6.609375 -6.828125 L 6.609375 0 Z M 1.53125 0 "/></g></g></g><g fill="#000000" fill-opacity="1"><g transform="translate(132.588889, 263.030316)"><g><path d="M 10.0625 0.25 C 8.113281 0.269531 6.4375 -0.0703125 5.03125 -0.78125 C 3.625 -1.5 2.546875 -2.523438 1.796875 -3.859375 C 1.054688 -5.203125 0.6875 -6.8125 0.6875 -8.6875 C 0.6875 -10.613281 1.09375 -12.296875 1.90625 -13.734375 C 2.71875 -15.179688 3.851562 -16.300781 5.3125 -17.09375 C 6.769531 -17.894531 8.472656 -18.296875 10.421875 -18.296875 C 12.191406 -18.296875 13.742188 -17.921875 15.078125 -17.171875 C 16.410156 -16.429688 17.441406 -15.394531 18.171875 -14.0625 C 18.910156 -12.726562 19.28125 -11.164062 19.28125 -9.375 C 19.28125 -7.476562 18.894531 -5.804688 18.125 -4.359375 C 17.351562 -2.921875 16.273438 -1.796875 14.890625 -0.984375 C 13.503906 -0.171875 11.894531 0.238281 10.0625 0.25 Z M 9.9375 -4.1875 C 11.238281 -4.1875 12.269531 -4.648438 13.03125 -5.578125 C 13.789062 -6.503906 14.171875 -7.734375 14.171875 -9.265625 C 14.171875 -10.660156 13.8125 -11.769531 13.09375 -12.59375 C 12.375 -13.425781 11.414062 -13.84375 10.21875 -13.84375 C 9.332031 -13.84375 8.554688 -13.625 7.890625 -13.1875 C 7.234375 -12.757812 6.722656 -12.171875 6.359375 -11.421875 C 5.992188 -10.671875 5.8125 -9.800781 5.8125 -8.8125 C 5.8125 -7.351562 6.175781 -6.21875 6.90625 -5.40625 C 7.632812 -4.59375 8.644531 -4.1875 9.9375 -4.1875 Z M 9.9375 -4.1875 "/></g></g></g><g fill="#000000" fill-opacity="1"><g transform="translate(161.07296, 263.030316)"><g><path d="M 1.53125 0 L 1.53125 -18.03125 L 6.609375 -18.03125 L 6.609375 -10.546875 L 13.03125 -18.03125 L 19.078125 -18.03125 L 11.203125 -9 C 11.609375 -8.769531 11.972656 -8.484375 12.296875 -8.140625 C 12.617188 -7.804688 12.898438 -7.4375 13.140625 -7.03125 L 14.125 -5.328125 C 14.5625 -4.535156 15.234375 -4.140625 16.140625 -4.140625 C 16.859375 -4.140625 17.507812 -4.316406 18.09375 -4.671875 L 19.265625 -0.765625 C 18.847656 -0.441406 18.300781 -0.179688 17.625 0.015625 C 16.945312 0.210938 16.265625 0.3125 15.578125 0.3125 C 13.015625 0.3125 11.1875 -0.628906 10.09375 -2.515625 L 8.4375 -5.328125 C 8.164062 -5.785156 7.898438 -6.128906 7.640625 -6.359375 C 7.390625 -6.585938 7.046875 -6.742188 6.609375 -6.828125 L 6.609375 0 Z M 1.53125 0 "/></g></g></g><g fill="#000000" fill-opacity="1"><g transform="translate(187.854805, 263.030316)"><g><path d="M 10.0625 0.25 C 8.113281 0.269531 6.4375 -0.0703125 5.03125 -0.78125 C 3.625 -1.5 2.546875 -2.523438 1.796875 -3.859375 C 1.054688 -5.203125 0.6875 -6.8125 0.6875 -8.6875 C 0.6875 -10.613281 1.09375 -12.296875 1.90625 -13.734375 C 2.71875 -15.179688 3.851562 -16.300781 5.3125 -17.09375 C 6.769531 -17.894531 8.472656 -18.296875 10.421875 -18.296875 C 12.191406 -18.296875 13.742188 -17.921875 15.078125 -17.171875 C 16.410156 -16.429688 17.441406 -15.394531 18.171875 -14.0625 C 18.910156 -12.726562 19.28125 -11.164062 19.28125 -9.375 C 19.28125 -7.476562 18.894531 -5.804688 18.125 -4.359375 C 17.351562 -2.921875 16.273438 -1.796875 14.890625 -0.984375 C 13.503906 -0.171875 11.894531 0.238281 10.0625 0.25 Z M 9.9375 -4.1875 C 11.238281 -4.1875 12.269531 -4.648438 13.03125 -5.578125 C 13.789062 -6.503906 14.171875 -7.734375 14.171875 -9.265625 C 14.171875 -10.660156 13.8125 -11.769531 13.09375 -12.59375 C 12.375 -13.425781 11.414062 -13.84375 10.21875 -13.84375 C 9.332031 -13.84375 8.554688 -13.625 7.890625 -13.1875 C 7.234375 -12.757812 6.722656 -12.171875 6.359375 -11.421875 C 5.992188 -10.671875 5.8125 -9.800781 5.8125 -8.8125 C 5.8125 -7.351562 6.175781 -6.21875 6.90625 -5.40625 C 7.632812 -4.59375 8.644531 -4.1875 9.9375 -4.1875 Z M 9.9375 -4.1875 "/></g></g></g><g fill="#000000" fill-opacity="1"><g transform="translate(216.338873, 263.030316)"><g><path d="M 1.578125 0 L 2.109375 -18.03125 L 6.25 -18.03125 L 12.296875 -6.28125 L 18.234375 -18.03125 L 22.390625 -18.03125 L 22.765625 0 L 17.859375 0 L 17.703125 -7.546875 L 13.84375 0 L 10.296875 0 L 6.453125 -7.421875 L 6.21875 0 Z M 1.578125 0 "/></g></g></g><g fill="#000000" fill-opacity="1"><g transform="translate(249.218216, 263.030316)"><g><path d="M 10.0625 0.25 C 8.113281 0.269531 6.4375 -0.0703125 5.03125 -0.78125 C 3.625 -1.5 2.546875 -2.523438 1.796875 -3.859375 C 1.054688 -5.203125 0.6875 -6.8125 0.6875 -8.6875 C 0.6875 -10.613281 1.09375 -12.296875 1.90625 -13.734375 C 2.71875 -15.179688 3.851562 -16.300781 5.3125 -17.09375 C 6.769531 -17.894531 8.472656 -18.296875 10.421875 -18.296875 C 12.191406 -18.296875 13.742188 -17.921875 15.078125 -17.171875 C 16.410156 -16.429688 17.441406 -15.394531 18.171875 -14.0625 C 18.910156 -12.726562 19.28125 -11.164062 19.28125 -9.375 C 19.28125 -7.476562 18.894531 -5.804688 18.125 -4.359375 C 17.351562 -2.921875 16.273438 -1.796875 14.890625 -0.984375 C 13.503906 -0.171875 11.894531 0.238281 10.0625 0.25 Z M 9.9375 -4.1875 C 11.238281 -4.1875 12.269531 -4.648438 13.03125 -5.578125 C 13.789062 -6.503906 14.171875 -7.734375 14.171875 -9.265625 C 14.171875 -10.660156 13.8125 -11.769531 13.09375 -12.59375 C 12.375 -13.425781 11.414062 -13.84375 10.21875 -13.84375 C 9.332031 -13.84375 8.554688 -13.625 7.890625 -13.1875 C 7.234375 -12.757812 6.722656 -12.171875 6.359375 -11.421875 C 5.992188 -10.671875 5.8125 -9.800781 5.8125 -8.8125 C 5.8125 -7.351562 6.175781 -6.21875 6.90625 -5.40625 C 7.632812 -4.59375 8.644531 -4.1875 9.9375 -4.1875 Z M 9.9375 -4.1875 "/></g></g></g><g fill="#000000" fill-opacity="1"><g transform="translate(139.094816, 286.147949)"><g><path d="M 9.203125 -2.46875 L 9.828125 -0.40625 C 9.609375 -0.226562 9.316406 -0.09375 8.953125 0 C 8.597656 0.101562 8.238281 0.15625 7.875 0.15625 C 7.164062 0.15625 6.578125 0.0234375 6.109375 -0.234375 C 5.648438 -0.492188 5.28125 -0.859375 5 -1.328125 L 4.109375 -2.8125 C 4.003906 -3 3.898438 -3.132812 3.796875 -3.21875 C 3.703125 -3.3125 3.582031 -3.367188 3.4375 -3.390625 L 3.4375 0 L 0.8125 0 L 0.8125 -9.53125 L 4.03125 -9.53125 C 5.5 -9.53125 6.582031 -9.25 7.28125 -8.6875 C 7.976562 -8.132812 8.328125 -7.367188 8.328125 -6.390625 C 8.328125 -5.691406 8.125 -5.109375 7.71875 -4.640625 C 7.320312 -4.179688 6.796875 -3.859375 6.140625 -3.671875 C 6.472656 -3.566406 6.738281 -3.367188 6.9375 -3.078125 L 7.1875 -2.71875 C 7.40625 -2.363281 7.75 -2.1875 8.21875 -2.1875 C 8.382812 -2.1875 8.550781 -2.207031 8.71875 -2.25 C 8.882812 -2.289062 9.046875 -2.363281 9.203125 -2.46875 Z M 4 -7.375 L 3.4375 -7.375 L 3.4375 -5.46875 L 4.125 -5.46875 C 4.707031 -5.46875 5.109375 -5.546875 5.328125 -5.703125 C 5.554688 -5.867188 5.671875 -6.113281 5.671875 -6.4375 C 5.671875 -6.800781 5.515625 -7.046875 5.203125 -7.171875 C 4.898438 -7.304688 4.5 -7.375 4 -7.375 Z M 4 -7.375 "/></g></g></g><g fill="#000000" fill-opacity="1"><g transform="translate(154.168609, 286.147949)"><g><path d="M 7.75 -7.234375 L 3.453125 -7.234375 L 3.453125 -5.9375 L 7.40625 -5.9375 L 7.40625 -3.640625 L 3.453125 -3.640625 L 3.453125 -2.296875 L 7.859375 -2.296875 L 7.703125 0 L 0.8125 0 L 0.8125 -9.53125 L 7.75 -9.53125 Z M 7.75 -7.234375 "/></g></g></g><g fill="#000000" fill-opacity="1"><g transform="translate(168.022439, 286.147949)"><g><path d="M 4.015625 0.140625 C 2.816406 0.140625 1.878906 -0.113281 1.203125 -0.625 C 0.535156 -1.132812 0.15625 -1.878906 0.0625 -2.859375 L 2.546875 -3.21875 C 2.566406 -2.882812 2.71875 -2.609375 3 -2.390625 C 3.28125 -2.179688 3.644531 -2.078125 4.09375 -2.078125 C 4.914062 -2.078125 5.328125 -2.289062 5.328125 -2.71875 C 5.328125 -2.914062 5.210938 -3.070312 4.984375 -3.1875 C 4.753906 -3.3125 4.378906 -3.4375 3.859375 -3.5625 C 2.753906 -3.832031 1.941406 -4.191406 1.421875 -4.640625 C 0.898438 -5.085938 0.644531 -5.71875 0.65625 -6.53125 C 0.664062 -7.15625 0.828125 -7.703125 1.140625 -8.171875 C 1.460938 -8.640625 1.910156 -9.003906 2.484375 -9.265625 C 3.066406 -9.523438 3.742188 -9.65625 4.515625 -9.65625 C 5.472656 -9.65625 6.265625 -9.414062 6.890625 -8.9375 C 7.515625 -8.457031 7.867188 -7.800781 7.953125 -6.96875 L 5.609375 -6.5625 C 5.566406 -6.820312 5.429688 -7.035156 5.203125 -7.203125 C 4.972656 -7.367188 4.695312 -7.453125 4.375 -7.453125 C 4.070312 -7.453125 3.828125 -7.390625 3.640625 -7.265625 C 3.460938 -7.148438 3.375 -6.988281 3.375 -6.78125 C 3.375 -6.59375 3.460938 -6.425781 3.640625 -6.28125 C 3.828125 -6.144531 4.175781 -6.015625 4.6875 -5.890625 C 5.414062 -5.710938 6.03125 -5.507812 6.53125 -5.28125 C 7.03125 -5.050781 7.40625 -4.753906 7.65625 -4.390625 C 7.914062 -4.035156 8.046875 -3.570312 8.046875 -3 C 8.046875 -2.375 7.875 -1.828125 7.53125 -1.359375 C 7.195312 -0.890625 6.726562 -0.519531 6.125 -0.25 C 5.519531 0.0078125 4.816406 0.140625 4.015625 0.140625 Z M 4.015625 0.140625 "/></g></g></g><g fill="#000000" fill-opacity="1"><g transform="translate(182.11758, 286.147949)"><g><path d="M 5.3125 0.140625 C 4.28125 0.140625 3.394531 -0.046875 2.65625 -0.421875 C 1.914062 -0.796875 1.347656 -1.332031 0.953125 -2.03125 C 0.554688 -2.738281 0.359375 -3.59375 0.359375 -4.59375 C 0.359375 -5.613281 0.570312 -6.503906 1 -7.265625 C 1.4375 -8.023438 2.035156 -8.613281 2.796875 -9.03125 C 3.566406 -9.445312 4.46875 -9.65625 5.5 -9.65625 C 6.4375 -9.65625 7.253906 -9.457031 7.953125 -9.0625 C 8.660156 -8.675781 9.207031 -8.128906 9.59375 -7.421875 C 9.988281 -6.722656 10.1875 -5.898438 10.1875 -4.953125 C 10.1875 -3.953125 9.984375 -3.070312 9.578125 -2.3125 C 9.171875 -1.550781 8.597656 -0.953125 7.859375 -0.515625 C 7.128906 -0.0859375 6.28125 0.128906 5.3125 0.140625 Z M 5.25 -2.21875 C 5.9375 -2.21875 6.476562 -2.457031 6.875 -2.9375 C 7.28125 -3.425781 7.484375 -4.082031 7.484375 -4.90625 C 7.484375 -5.632812 7.289062 -6.21875 6.90625 -6.65625 C 6.53125 -7.09375 6.023438 -7.3125 5.390625 -7.3125 C 4.929688 -7.3125 4.523438 -7.195312 4.171875 -6.96875 C 3.828125 -6.738281 3.554688 -6.425781 3.359375 -6.03125 C 3.171875 -5.632812 3.078125 -5.175781 3.078125 -4.65625 C 3.078125 -3.882812 3.269531 -3.285156 3.65625 -2.859375 C 4.039062 -2.429688 4.570312 -2.21875 5.25 -2.21875 Z M 5.25 -2.21875 "/></g></g></g><g fill="#000000" fill-opacity="1"><g transform="translate(198.531991, 286.147949)"><g><path d="M 9.203125 -2.46875 L 9.828125 -0.40625 C 9.609375 -0.226562 9.316406 -0.09375 8.953125 0 C 8.597656 0.101562 8.238281 0.15625 7.875 0.15625 C 7.164062 0.15625 6.578125 0.0234375 6.109375 -0.234375 C 5.648438 -0.492188 5.28125 -0.859375 5 -1.328125 L 4.109375 -2.8125 C 4.003906 -3 3.898438 -3.132812 3.796875 -3.21875 C 3.703125 -3.3125 3.582031 -3.367188 3.4375 -3.390625 L 3.4375 0 L 0.8125 0 L 0.8125 -9.53125 L 4.03125 -9.53125 C 5.5 -9.53125 6.582031 -9.25 7.28125 -8.6875 C 7.976562 -8.132812 8.328125 -7.367188 8.328125 -6.390625 C 8.328125 -5.691406 8.125 -5.109375 7.71875 -4.640625 C 7.320312 -4.179688 6.796875 -3.859375 6.140625 -3.671875 C 6.472656 -3.566406 6.738281 -3.367188 6.9375 -3.078125 L 7.1875 -2.71875 C 7.40625 -2.363281 7.75 -2.1875 8.21875 -2.1875 C 8.382812 -2.1875 8.550781 -2.207031 8.71875 -2.25 C 8.882812 -2.289062 9.046875 -2.363281 9.203125 -2.46875 Z M 4 -7.375 L 3.4375 -7.375 L 3.4375 -5.46875 L 4.125 -5.46875 C 4.707031 -5.46875 5.109375 -5.546875 5.328125 -5.703125 C 5.554688 -5.867188 5.671875 -6.113281 5.671875 -6.4375 C 5.671875 -6.800781 5.515625 -7.046875 5.203125 -7.171875 C 4.898438 -7.304688 4.5 -7.375 4 -7.375 Z M 4 -7.375 "/></g></g></g><g fill="#000000" fill-opacity="1"><g transform="translate(213.605782, 286.147949)"><g><path d="M 8.625 -9.53125 L 8.234375 -7.1875 L 5.453125 -7.1875 L 5.453125 0 L 2.765625 0 L 2.765625 -7.1875 L -0.21875 -7.1875 L -0.21875 -9.53125 Z M 8.625 -9.53125 "/></g></g></g><g fill="#000000" fill-opacity="1"><g transform="translate(227.674106, 286.147949)"><g><path d="M 4.015625 0.140625 C 2.816406 0.140625 1.878906 -0.113281 1.203125 -0.625 C 0.535156 -1.132812 0.15625 -1.878906 0.0625 -2.859375 L 2.546875 -3.21875 C 2.566406 -2.882812 2.71875 -2.609375 3 -2.390625 C 3.28125 -2.179688 3.644531 -2.078125 4.09375 -2.078125 C 4.914062 -2.078125 5.328125 -2.289062 5.328125 -2.71875 C 5.328125 -2.914062 5.210938 -3.070312 4.984375 -3.1875 C 4.753906 -3.3125 4.378906 -3.4375 3.859375 -3.5625 C 2.753906 -3.832031 1.941406 -4.191406 1.421875 -4.640625 C 0.898438 -5.085938 0.644531 -5.71875 0.65625 -6.53125 C 0.664062 -7.15625 0.828125 -7.703125 1.140625 -8.171875 C 1.460938 -8.640625 1.910156 -9.003906 2.484375 -9.265625 C 3.066406 -9.523438 3.742188 -9.65625 4.515625 -9.65625 C 5.472656 -9.65625 6.265625 -9.414062 6.890625 -8.9375 C 7.515625 -8.457031 7.867188 -7.800781 7.953125 -6.96875 L 5.609375 -6.5625 C 5.566406 -6.820312 5.429688 -7.035156 5.203125 -7.203125 C 4.972656 -7.367188 4.695312 -7.453125 4.375 -7.453125 C 4.070312 -7.453125 3.828125 -7.390625 3.640625 -7.265625 C 3.460938 -7.148438 3.375 -6.988281 3.375 -6.78125 C 3.375 -6.59375 3.460938 -6.425781 3.640625 -6.28125 C 3.828125 -6.144531 4.175781 -6.015625 4.6875 -5.890625 C 5.414062 -5.710938 6.03125 -5.507812 6.53125 -5.28125 C 7.03125 -5.050781 7.40625 -4.753906 7.65625 -4.390625 C 7.914062 -4.035156 8.046875 -3.570312 8.046875 -3 C 8.046875 -2.375 7.875 -1.828125 7.53125 -1.359375 C 7.195312 -0.890625 6.726562 -0.519531 6.125 -0.25 C 5.519531 0.0078125 4.816406 0.140625 4.015625 0.140625 Z M 4.015625 0.140625 "/></g></g></g></svg>